<svg width="58" height="48" viewBox="0 0 58 48" fill="none" xmlns="http://www.w3.org/2000/svg">
<path d="M57.968 9.05891L53.3279 35.3193C53.2348 35.823 52.9529 36.2787 52.5332 36.6037C52.1136 36.9287 51.5839 37.1016 51.0404 37.0909H19.226C19.1981 37.0975 19.1819 37.1171 19.1564 37.1236C18.9617 37.1716 18.7614 37.1958 18.5601 37.1956C18.3043 37.1947 18.0503 37.1541 17.8085 37.0756C17.7045 37.031 17.6037 36.98 17.5069 36.9229C17.382 36.8717 17.2618 36.8111 17.1473 36.7418C17.0636 36.6683 16.9853 36.5896 16.9129 36.5062C16.8114 36.4195 16.7183 36.3246 16.6345 36.2225C16.5748 36.121 16.5237 36.0152 16.4814 35.9062C16.4168 35.8005 16.3624 35.6895 16.319 35.5745L7.49598 4.36364H2.32002C1.70471 4.36364 1.11461 4.13377 0.679517 3.7246C0.24443 3.31543 0 2.76047 0 2.18182C0 1.60316 0.24443 1.04821 0.679517 0.63904C1.11461 0.22987 1.70471 0 2.32002 0H9.28007C9.79137 0.000197831 10.2883 0.159234 10.6936 0.45239C11.0988 0.745546 11.3898 1.1564 11.5212 1.62109L12.9132 6.54545H55.6804C56.0173 6.545 56.3502 6.61368 56.656 6.7467C56.9617 6.87972 57.2329 7.07389 57.4506 7.31564C57.6683 7.55273 57.8276 7.83215 57.917 8.13391C58.0065 8.43566 58.0239 8.75227 57.968 9.06109V9.05891ZM23.2002 39.2727C22.2825 39.2727 21.3854 39.5286 20.6223 40.0081C19.8593 40.4876 19.2645 41.1691 18.9133 41.9665C18.5622 42.7638 18.4703 43.6412 18.6493 44.4877C18.8283 45.3341 19.2703 46.1117 19.9192 46.7219C20.5681 47.3322 21.3949 47.7478 22.295 47.9162C23.195 48.0845 24.128 47.9981 24.9758 47.6678C25.8237 47.3376 26.5484 46.7783 27.0582 46.0607C27.5681 45.3431 27.8402 44.4994 27.8402 43.6364C27.8402 42.4791 27.3514 41.3691 26.4812 40.5508C25.611 39.7325 24.4308 39.2727 23.2002 39.2727ZM46.4004 39.2727C45.4826 39.2727 44.5855 39.5286 43.8225 40.0081C43.0594 40.4876 42.4647 41.1691 42.1135 41.9665C41.7623 42.7638 41.6704 43.6412 41.8495 44.4877C42.0285 45.3341 42.4704 46.1117 43.1194 46.7219C43.7683 47.3322 44.5951 47.7478 45.4951 47.9162C46.3952 48.0845 47.3282 47.9981 48.176 47.6678C49.0239 47.3376 49.7486 46.7783 50.2584 46.0607C50.7683 45.3431 51.0404 44.4994 51.0404 43.6364C51.0404 42.4791 50.5515 41.3691 49.6814 40.5508C48.8112 39.7325 47.631 39.2727 46.4004 39.2727Z" fill="white"/>
</svg>
