<svg width="55" height="44" viewBox="0 0 55 44" fill="none" xmlns="http://www.w3.org/2000/svg">
<path d="M4.45946 17.7961C1.99189 17.7961 0 19.7833 0 22.2451C0 24.7069 1.99189 26.6941 4.45946 26.6941C6.92703 26.6941 8.91892 24.7069 8.91892 22.2451C8.91892 19.7833 6.92703 17.7961 4.45946 17.7961ZM4.45946 0C1.99189 0 0 1.98723 0 4.44901C0 6.9108 1.99189 8.89803 4.45946 8.89803C6.92703 8.89803 8.91892 6.9108 8.91892 4.44901C8.91892 1.98723 6.92703 0 4.45946 0ZM4.45946 36.0815C3.93189 36.0712 3.40756 36.166 2.91714 36.3603C2.42672 36.5546 1.98006 36.8445 1.60328 37.213C1.2265 37.5816 0.927167 38.0214 0.72279 38.5067C0.518412 38.9921 0.413094 39.5132 0.412995 40.0396C0.412896 40.5661 0.518019 41.0872 0.722214 41.5727C0.92641 42.0581 1.22558 42.498 1.60222 42.8667C1.97886 43.2354 2.42542 43.5255 2.91576 43.7199C3.40611 43.9144 3.9304 44.0094 4.45797 43.9993C5.4971 43.9794 6.48696 43.5537 7.21487 42.8136C7.94277 42.0734 8.35064 41.078 8.35083 40.0411C8.35103 39.0042 7.94353 38.0086 7.21591 37.2683C6.48828 36.5279 5.49858 36.1018 4.45946 36.0815V36.0815ZM13.3784 43.0071H55V37.0751H13.3784V43.0071ZM13.3784 25.2111H55V19.2791H13.3784V25.2111ZM13.3784 1.483V7.41502H55V1.483H13.3784Z" fill="white"/>
</svg>
