<svg width="249" height="256" viewBox="0 0 249 256" fill="none" xmlns="http://www.w3.org/2000/svg">
<g clip-path="url(#clip0_119_241)">
<path d="M161.481 15.4985C159.012 12.2432 156.205 9.31814 152.73 7.11159C149.961 5.3815 147.02 4.29183 143.69 5.42878C142.609 5.81102 141.661 6.4971 140.96 7.40478C140.259 8.31247 139.835 9.40325 139.738 10.5464C139.573 12.9719 140.941 15.61 142.989 16.5109C143.277 16.6061 143.582 16.6368 143.883 16.601C144.184 16.5652 144.474 16.4637 144.731 16.3036C145.393 15.8254 145.181 15.0682 144.706 14.4497C144.566 14.2665 144.389 14.1125 144.247 13.9261C143.304 12.6936 143.156 10.7091 143.912 9.54709C144.668 8.38504 146.124 7.89438 147.824 8.38317C148.793 8.65692 149.726 9.0431 150.605 9.5338C156.68 12.9999 161.002 18.0536 163.187 24.6188C165.721 32.23 164.308 39.3721 159.258 45.6774C158.527 46.5966 157.531 47.3368 156.497 48.3139C155.085 43.9628 152.829 39.9323 149.86 36.4529C147.313 33.386 144.559 30.585 140.728 29.1425C138.325 28.237 135.909 27.9452 133.573 29.3442C131.116 30.8105 130.067 33.2282 129.537 35.8538C128.586 40.5373 130.278 44.5178 133.095 48.1429C137.627 54.0172 146.546 56.6769 153.144 54.0053C153.43 53.9243 153.723 53.8743 154.019 53.8562C154.086 53.9786 154.137 54.1093 154.17 54.2448C154.698 61.2889 152.895 67.5329 147.681 72.5014C145.16 74.8588 142.203 76.7012 138.976 77.9252C138.536 78.1013 137.937 77.8761 137.411 77.8339L137.428 77.4634C137.545 77.3688 137.667 77.2837 137.774 77.1782C138.079 76.8917 138.373 76.5943 138.673 76.3014C138.292 76.089 137.886 75.9258 137.464 75.8158C135.256 75.5111 133.043 75.2552 130.798 74.9798C130.801 75.0445 130.798 74.9798 130.791 74.9006C130.876 74.3659 130.965 73.8331 131.058 73.3023C130.513 73.2797 129.967 73.3219 129.432 73.428C127.54 74.0426 125.674 74.7339 123.816 75.3876C124.012 73.572 124.154 71.8028 124.404 70.048C124.486 69.3582 124.716 68.6943 125.078 68.1016C126.446 66.0534 126.477 66.073 123.983 65.5886C124.65 62.8075 124.312 59.7794 126.239 57.3226C126.722 56.7034 126.385 56.1531 125.662 56.0763C124.745 55.9418 123.813 55.9429 122.897 56.0796C121.398 56.3663 119.934 56.8573 118.366 57.2868C117.912 54.4683 116.733 51.8163 114.943 49.5919C113.605 47.9042 111.977 46.4115 111.363 44.2394C111.325 44.0869 111.235 43.9523 111.108 43.8588C110.764 43.6364 110.359 43.2611 110.063 43.3397C109.767 43.4183 109.571 43.943 109.442 44.3138C109.246 44.8386 109.253 45.4577 109.006 45.9654C108.202 47.6356 107.384 49.3097 106.461 50.914C105.763 52.135 104.893 53.2488 104.001 54.5534C102.937 53.1935 102.079 52.0089 101.11 50.9154C100.771 50.5322 100.115 50.1151 99.7003 50.1975C99.286 50.28 99.0275 50.9892 98.7984 51.462C98.4486 52.2306 98.2732 53.0885 97.8705 53.7995C96.6949 55.9021 95.438 57.963 94.288 59.9184C92.8369 60.1202 91.228 60.1364 89.7634 60.6031C87.3342 61.3773 87.2822 61.6846 88.1182 64.2015C88.4689 65.2506 88.8638 66.275 89.3575 67.6094C88.8608 67.3344 88.3447 67.096 87.8133 66.8961C87.191 66.7255 86.4486 66.4145 85.9224 66.601C85.0914 66.9249 85.3248 67.8238 85.4982 68.5488C86.1997 71.7048 87.8037 74.589 90.1148 76.8499C90.4296 77.1263 90.6875 77.4613 90.8742 77.8363C91.2913 78.8484 91.5851 79.9293 92.0242 80.929C92.4633 81.9286 93.0857 82.8257 93.5153 83.8307C93.6805 84.2073 93.7453 84.8643 93.5316 85.1126C93.318 85.3609 92.677 85.3127 92.2638 85.2119C91.1474 84.9441 90.779 83.9672 90.3707 83.0374C89.9624 82.1077 89.428 81.1157 88.9806 80.1457C88.3854 78.8597 87.8123 77.5614 87.2283 76.2734C87.1121 76.0063 87.0053 75.734 86.8954 75.4634C86.6297 75.6411 86.357 75.8062 86.1101 76.0025C85.9654 76.1558 85.837 76.3237 85.7267 76.5035C84.3965 73.6446 82.9656 70.9915 80.4318 69.1548C78.9247 68.0555 77.6225 66.7293 77.0801 64.8409C77.0465 64.7809 76.8927 64.7507 76.5648 64.6021L75.4045 70.2828C75.3397 70.2485 75.1153 70.1292 74.8835 70.0264C72.2321 68.8617 69.5908 67.6706 66.9164 66.5685C66.4994 66.3868 65.661 66.4824 65.4808 66.7534C65.2341 67.1281 65.3346 67.8191 65.464 68.332C65.632 68.7874 65.8616 69.2176 66.1464 69.6107C64.0756 69.8023 62.1292 69.8454 60.2542 70.2015C57.8717 70.6589 57.7212 71.2869 59.2643 73.1176C59.2944 73.1713 59.2824 73.261 59.2978 73.4517L58.1696 73.452C56.6229 73.4459 55.076 73.4024 53.5302 73.4497C51.9844 73.497 51.5526 74.1413 52.088 75.6392C52.2642 76.1524 52.5 76.6433 52.7904 77.1017C53.2945 77.8616 53.8645 78.5763 54.5004 79.416C54.0771 79.6529 53.7275 79.8734 53.3568 80.056C51.3808 81.0248 49.3801 81.9494 47.424 82.9611C45.8761 83.7609 45.7393 84.4726 46.868 85.763C47.7174 86.7323 48.6619 87.6194 49.619 88.6031L48.6712 89.1335C46.8516 90.1519 45.0089 91.1291 43.2331 92.2184C42.699 92.5464 42.0179 93.1974 42.0249 93.6916C42.0318 94.1859 42.7886 94.7006 43.2884 95.1266C43.5717 95.3956 44.0645 95.535 44.7812 95.9185C43.2371 97.3181 41.8445 98.5583 40.4807 99.828C40.0302 100.246 39.3125 100.772 39.3438 101.199C39.3752 101.626 40.1388 102.078 40.6356 102.44C41.1894 102.78 41.7624 103.089 42.3517 103.364C40.0192 105.578 37.8835 107.67 35.6659 109.675C34.7778 110.475 34.7095 111.265 35.7357 111.89C36.2812 112.22 36.8572 112.508 37.4093 112.805C36.4532 113.78 35.5509 114.622 34.7399 115.545C34.0006 116.373 34.0772 117.281 34.983 117.966C35.8031 118.586 36.6953 119.083 37.6938 119.741C37.0405 121.538 36.4173 123.39 35.7202 125.221C35.3434 126.208 35.5334 126.666 36.5772 126.871C37.1614 126.988 37.7521 127.072 38.414 127.188C37.4696 128.895 36.5801 130.427 35.7667 131.99C35.5407 132.561 35.3713 133.152 35.261 133.755C35.8499 133.903 36.4433 134.044 37.034 134.195C37.098 134.213 37.1468 134.286 37.2663 134.381C36.9554 135.182 36.6156 135.99 36.3177 136.83C35.5895 138.827 34.7607 140.719 32.4999 141.49C32.176 141.601 31.837 142.426 31.9434 142.794C32.0574 143.014 32.2252 143.203 32.4311 143.341C32.6371 143.48 32.8746 143.565 33.1218 143.587C34.013 143.549 34.8922 143.368 35.7259 143.052C37.0051 142.572 38.2335 141.943 39.551 141.347L39.784 143.483C41.4615 142.544 42.9756 141.647 44.5351 140.853C45.0813 140.577 45.7579 140.555 46.3658 140.418C46.4022 141.091 46.4611 141.76 46.4701 142.435C46.4536 142.798 46.4131 143.159 46.3489 143.516C46.4474 143.61 46.5427 143.707 46.6411 143.801C48.0911 142.989 49.5249 142.141 50.9944 141.365C52.4639 140.588 54.0707 139.871 55.6036 139.134C55.7452 139.387 55.9376 139.827 56.0899 140.136C57.4019 139.078 58.6366 138.134 59.7987 137.127C60.8408 136.224 61.8704 136.299 62.8086 137.397C63.0574 137.609 63.3352 137.783 63.6336 137.915C63.7803 137.622 64.0424 137.334 64.0558 137.032C64.1226 135.379 65.229 134.532 66.5816 133.613C66.8169 134.033 66.9947 134.403 67.2132 134.742C67.6539 135.396 68.0688 135.359 68.3652 134.628C68.5107 134.273 68.567 133.884 68.6843 133.516C69.1446 132.062 69.6148 130.612 70.1406 128.964C70.4281 129.232 70.7366 129.475 71.0631 129.694C71.4422 129.896 71.8467 130.019 72.2383 130.177C72.3668 129.807 72.6437 129.419 72.6013 129.069C72.4307 127.504 73.1654 126.371 74.2118 125.387C75.4135 124.257 76.6664 123.183 78.1737 121.829C77.9751 122.599 77.7189 123.352 77.4073 124.084C76.7452 125.347 76.0284 126.587 75.2528 127.781C73.3022 130.811 71.848 134.024 71.3932 137.637C71.26 138.704 71.2823 139.663 72.6244 139.592C72.5379 141.758 72.4668 143.803 72.3854 145.837C72.3376 146.893 72.5602 147.699 73.5941 147.589C73.1377 149.576 72.5876 151.536 72.2663 153.534C72.1348 154.359 72.187 155.542 72.6814 156.062C73.3446 156.758 73.2135 157.383 73.3 158.124C73.5227 160.108 73.7394 162.104 74.1582 164.053C74.4376 165.345 75.286 165.497 76.2855 164.652C76.6302 164.363 76.9887 164.092 77.5621 163.634C77.1034 165.676 76.8085 167.477 77.8422 169.161C78.4834 170.217 79.079 171.304 79.7766 172.321C80.2796 173.056 81.01 173.042 81.6188 172.336C82.1568 171.711 82.6476 171.046 83.3207 170.188C83.6269 172.433 84.9843 173.657 86.2937 174.93C86.8371 175.456 87.2923 176.106 87.8147 176.669C88.2195 177.111 88.612 177.738 89.1139 177.864C89.524 177.966 90.0916 177.454 90.6545 177.184C90.8285 177.737 90.9627 178.301 91.0562 178.873C91.3124 181.295 92.6292 183.004 94.5645 184.349C95.3101 184.866 96.0128 185.299 96.7972 184.499C98.3881 186.452 99.8977 188.363 101.479 190.21C101.798 190.58 102.398 190.704 102.868 190.944C103.123 190.436 103.58 189.939 103.591 189.426C103.636 187.787 103.519 186.146 103.456 184.492C104.762 184.89 105.13 184.688 105.275 183.295C105.384 182.229 105.322 181.155 105.357 180.343C105.72 179.82 106.254 179.372 106.175 179.113C105.683 177.545 106.216 176.11 106.655 174.693C107.139 173.093 107.045 171.374 106.389 169.836C106.302 169.615 106.255 169.375 106.174 169.089L107.337 169.359L107.867 159.876L112.317 160.229C112.337 159.923 112.354 159.627 112.375 159.333C112.449 158.27 112.409 157.168 112.635 156.157C113.01 154.69 112.997 153.151 112.599 151.69C112.502 151.228 112.436 150.76 112.401 150.29C112.86 150.406 113.316 150.524 113.775 150.633C113.842 150.649 113.92 150.602 114.099 150.551C114.248 149.335 114.459 148.096 114.479 146.843C114.511 145.664 114.408 144.485 114.172 143.329C113.977 142.417 113.467 141.573 113.113 140.696C113.306 140.588 113.411 140.487 113.499 140.48C113.95 140.456 114.399 140.458 114.971 140.449C114.574 135.789 115.704 130.773 111.153 127.259C111.638 127.274 112.011 127.459 112.399 127.492C112.753 127.552 113.117 127.478 113.42 127.285C113.604 127.095 113.582 126.597 113.49 126.283C113.328 125.734 112.968 125.239 112.817 124.688C112.527 123.601 112.024 122.582 111.338 121.689C110.652 120.797 109.797 120.049 108.821 119.489C108.639 119.379 108.492 119.221 108.591 119.302C108.816 118.658 109.233 117.972 109.084 117.81C107.727 116.349 107.062 114.301 105.162 113.292C104.559 112.957 104.095 112.328 103.505 111.77C104.726 112.469 105.787 113.623 106.87 113.624C108.467 113.639 109.357 114.569 110.479 115.261C111.6 115.954 112.603 116.634 113.659 117.334C114.318 117.77 114.898 117.732 115.379 117.094C115.57 116.805 115.743 116.505 115.896 116.194C117.438 117.348 118.924 118.447 120.393 119.568C121.291 120.253 121.886 120.16 122.466 119.18C122.588 118.896 122.726 118.62 122.878 118.352C123.128 118.059 123.396 117.784 123.682 117.528C124.022 117.882 124.525 118.181 124.668 118.599C124.669 118.605 124.672 118.611 124.677 118.615C124.708 118.635 124.742 118.65 124.775 118.672C125.929 119.467 127.203 119.63 128.53 119.784C128.662 119.71 128.795 119.636 128.924 119.563C129.151 119.378 129.4 119.223 129.666 119.103C130.115 118.615 130.197 117.946 130.305 117.279C130.407 116.72 130.511 116.164 130.649 115.306C132.658 116.071 134.534 116.711 136.348 117.514C137.665 118.088 138.415 117.768 138.618 116.314C138.685 115.832 138.74 115.353 138.829 114.622C140.513 115.282 142.032 115.898 143.568 116.479C144.144 116.7 144.804 117.086 145.319 116.96C145.604 116.892 145.8 116.45 146.026 116C146.055 115.748 146.168 115.514 146.346 115.335C146.456 113.882 146.478 112.424 146.412 110.968C145.977 110.012 145.508 109.07 145.116 108.073C144.772 107.191 145.864 106.26 146.692 106.552C148.201 107.108 149.588 107.954 150.773 109.042C151.63 107.392 151.272 105.197 150.566 103.542C150.277 102.914 149.921 102.32 149.504 101.77C148.373 100.708 147.53 99.3778 147.053 97.9021C146.576 96.4265 146.481 94.8541 146.777 93.3323C145.986 93.223 145.196 93.1169 144.408 92.9977C144.266 92.959 144.136 92.8874 144.028 92.7887C143.919 92.69 143.835 92.5671 143.783 92.4299C143.785 92.2915 143.823 92.1559 143.893 92.0362C143.962 91.9166 144.061 91.8169 144.181 91.7466C144.594 91.5966 145.032 91.5219 145.472 91.5263C146.175 91.5148 146.575 91.1622 146.341 90.5212C145.432 88.0368 144.518 85.53 141.699 84.5093C141.633 84.488 141.603 84.3386 141.542 84.1403C141.861 84.1972 142.187 84.2078 142.509 84.1717C142.984 84.0075 143.449 83.8154 143.901 83.5965C143.622 83.1919 143.312 82.8104 142.972 82.4557C142.4 81.9455 141.753 81.4776 140.989 80.8919C141.545 80.5808 141.744 80.4694 141.937 80.3615C145.182 78.695 148.296 76.8026 150.878 74.2036C156.181 68.8531 158.085 62.225 157.645 54.8866C157.526 52.8278 157.966 51.5977 159.591 50.1651C166.014 44.4952 168.74 37.2906 167.402 28.7192C166.641 23.7777 164.452 19.4441 161.481 15.4985ZM147.287 51.3886C144.454 51.7907 139.073 50.5886 136.631 47.1067C130.073 37.7538 132.615 31.088 139.172 32.6118C141.395 33.1283 144.211 34.3583 149.935 42.326C150.868 43.6515 156.509 50.076 147.271 51.3975L147.287 51.3886Z" fill="white"/>
<path d="M101.182 251.35C101.068 251.68 101.022 252.05 100.916 252.068C100.694 252.109 100.284 252.006 100.231 251.874C100.144 251.666 100.293 251.354 100.339 251.088L101.182 251.35Z" fill="white"/>
<path d="M102.196 251.131L102.87 250.505L101.714 250.604L101.974 249.911L102.264 249.985C102.891 250.905 102.891 250.905 102.196 251.131Z" fill="white"/>
<path d="M148.441 93.2308C148.964 94.4536 149.469 95.661 149.994 96.8578C150.248 97.4379 149.981 97.6951 149.467 97.8957C147.549 98.57 145.47 98.6396 143.51 98.0951C141.551 97.5506 139.805 96.4181 138.508 94.8505C136.743 92.675 135.991 90.2725 136.895 87.5209C137.544 85.5676 138.881 84.9317 140.815 85.6302C142.99 86.41 144.537 87.989 145.931 89.7244C146.843 90.8336 147.613 92.0546 148.441 93.2308Z" fill="white"/>
<path d="M134.825 115.713C134.999 115.875 135.224 115.746 135.426 115.787C135.615 115.81 135.795 115.878 135.952 115.987C136.271 116.185 136.528 116.468 136.695 116.804C136.793 117.07 136.827 117.355 136.794 117.637C136.762 117.918 136.663 118.188 136.507 118.425C136.319 118.712 136.042 118.931 135.718 119.047C135.465 119.167 135.264 119.375 135.154 119.632C134.991 119.874 134.899 120.156 134.886 120.448C134.873 120.739 134.94 121.028 135.081 121.284L135.787 122.818C136.252 122.779 136.708 122.671 137.14 122.496C138.269 122.252 139.434 122.216 140.577 122.389C141.505 122.557 142.395 122.894 143.202 123.382C143.976 123.861 144.679 124.447 145.288 125.124C145.747 125.617 146.162 126.148 146.529 126.713C146.659 126.884 146.78 127.062 146.891 127.246C146.986 127.453 147.157 127.624 147.276 127.828C147.353 128.04 147.447 128.245 147.558 128.441C148.013 129.145 148.397 129.893 148.703 130.674C148.846 130.929 148.939 131.209 148.975 131.5C149.004 131.761 149.2 131.988 149.208 132.276C149.216 132.565 149.478 132.644 149.368 132.895C149.544 133.291 149.639 133.718 149.646 134.151C149.725 134.54 149.709 134.957 149.783 135.39C149.857 135.823 149.669 136.101 149.858 136.44C149.766 136.765 149.837 137.1 149.768 137.44C149.72 137.769 149.689 138.101 149.675 138.434C149.616 139.11 149.503 139.781 149.34 140.44C149.181 141.055 148.999 141.673 148.84 142.288C148.724 142.811 148.553 143.32 148.331 143.807C147.961 144.561 147.685 145.356 147.271 146.088C146.939 146.753 146.538 147.382 146.076 147.965C145.956 148.097 145.811 148.203 145.649 148.278C145.487 148.352 145.312 148.393 145.133 148.399C144.568 148.403 144.004 148.334 143.455 148.196C142.923 148.108 142.41 147.918 141.877 147.864L141.861 147.83C141.049 147.553 140.209 147.339 139.43 146.989C138.744 146.731 138.076 146.429 137.429 146.084C136.779 145.724 136.149 145.329 135.542 144.901C135.135 144.597 134.693 144.325 134.299 144.014C133.658 143.507 133.063 142.943 132.523 142.33C131.991 141.848 131.528 141.295 131.149 140.686C130.773 140.45 130.734 139.984 130.456 139.67C130.221 139.305 130.038 138.909 129.914 138.493C129.73 138.094 129.549 137.702 129.369 137.31C129.255 137.062 129.212 136.79 129.129 136.536C129.026 136.302 128.949 136.058 128.902 135.807C128.852 135.525 128.767 135.25 128.65 134.989C128.451 134.306 128.313 133.608 128.239 132.901C128.151 132.244 128.142 131.579 128.211 130.92C128.25 130.439 128.338 129.962 128.473 129.498C128.608 129.046 128.768 128.602 128.953 128.168C129.124 127.798 129.334 127.447 129.579 127.12C130.15 126.322 130.847 125.621 131.642 125.044C131.831 124.909 132.026 124.783 132.227 124.667C132.386 124.553 132.538 124.43 132.683 124.298L132.515 123.934C132.28 123.424 132.043 122.908 131.805 122.392C131.614 121.877 131.5 121.337 131.466 120.788C131.427 119.92 131.601 119.054 131.974 118.269C132.286 117.655 132.725 117.115 133.262 116.683C133.427 116.607 133.571 116.449 133.744 116.353C133.744 116.353 133.77 116.266 133.782 116.219L134.825 115.713Z" fill="white"/>
<path d="M155.204 170.21C155.02 170.045 154.802 170.187 154.604 170.119C154.157 169.977 153.701 169.864 153.239 169.781C152.6 169.656 151.97 169.495 151.349 169.3C150.631 169.116 149.941 168.836 149.298 168.468C149.006 168.285 148.674 168.18 148.36 168.024C148.278 167.961 148.203 167.89 148.137 167.81C149.742 166.161 151.056 164.253 152.025 162.166C154.278 162.738 156.605 162.96 158.925 162.825C158.827 163.228 158.703 163.628 158.646 164.029C158.52 164.668 158.316 165.289 158.037 165.877C157.768 166.571 157.444 167.241 157.068 167.883C156.909 168.148 156.779 168.429 156.679 168.722C156.556 169.079 156.356 169.405 156.093 169.676C156.093 169.676 156.069 169.77 156.058 169.817L155.204 170.21Z" fill="white"/>
<path d="M145.5 120.731L145.737 120.738C146.826 120.71 147.915 120.807 148.982 121.029C149.724 121.152 150.451 121.357 151.148 121.641C151.851 121.935 152.582 122.165 153.228 122.535C153.89 122.878 154.526 123.271 155.129 123.711C155.576 124.048 156.037 124.361 156.451 124.771C157.166 125.388 157.844 126.048 158.479 126.748C159.01 127.321 159.501 127.931 159.945 128.574C160.189 128.921 160.442 129.272 160.692 129.615C160.814 129.876 160.967 130.122 161.146 130.348C161.404 130.563 161.393 130.885 161.597 131.092C161.871 131.518 162.12 131.961 162.341 132.417C162.775 133.11 163.147 133.84 163.454 134.599C163.561 134.862 163.601 135.148 163.569 135.431C163.538 135.713 163.436 135.983 163.273 136.217C163.046 136.492 162.763 136.717 162.442 136.875C161.885 137.131 161.279 137.227 160.737 137.518C160.273 137.506 159.866 137.836 159.39 137.763C158.901 137.942 158.389 138.049 157.869 138.08C157.392 138.184 156.905 138.238 156.416 138.24C155.857 138.239 155.31 138.299 154.771 138.289C154.232 138.278 153.832 138.296 153.361 138.288C153.258 138.278 153.155 138.261 153.054 138.237C153.085 137.923 153.142 137.613 153.149 137.301C153.184 136.098 153.114 134.893 152.942 133.702C152.865 133.12 152.745 132.545 152.583 131.982C152.415 131.4 152.216 130.841 152.052 130.266C151.708 129.315 151.31 128.385 150.86 127.479C150.728 127.243 150.584 127.014 150.428 126.794C150.348 126.554 150.241 126.323 150.111 126.106C149.96 125.9 149.822 125.685 149.697 125.462C149.551 125.271 149.45 125.051 149.299 124.887C148.99 124.389 148.623 123.931 148.204 123.523C147.948 123.102 147.623 122.727 147.243 122.414C146.731 121.834 146.137 121.332 145.481 120.923L145.5 120.731Z" fill="white"/>
<path d="M124.828 130.293C124.799 130.682 124.761 130.999 124.755 131.311C124.772 132.058 124.836 132.802 124.948 133.541C125.028 134.211 125.164 134.875 125.352 135.523C125.49 135.985 125.621 136.45 125.738 136.922C125.855 137.394 126.109 137.727 126.197 138.154C126.502 139.073 126.876 139.969 127.314 140.833C127.436 141.099 127.592 141.346 127.779 141.57C127.89 141.84 128.042 142.09 128.229 142.314C128.391 142.512 128.532 142.727 128.649 142.954C129.154 143.655 129.706 144.321 130.301 144.946C130.935 145.608 131.606 146.235 132.308 146.824C132.556 147.019 132.817 147.197 133.088 147.358C133.013 147.467 132.959 147.567 132.885 147.66C132.371 148.34 131.808 148.981 131.2 149.578C130.713 150.078 130.206 150.553 129.699 151.028C129.402 151.307 129.091 151.517 128.773 151.805C128.366 152.084 127.977 152.389 127.608 152.717L127.533 152.752C126.909 153.15 126.251 153.489 125.565 153.767C125.333 153.854 125.083 153.882 124.837 153.85C124.591 153.818 124.356 153.726 124.154 153.582C123.826 153.362 123.57 153.051 123.417 152.687C123.296 152.426 123.179 152.171 123.059 151.91C122.726 151.187 122.393 150.465 122.177 149.688C122.079 149.384 121.946 149.078 121.868 148.763C121.81 148.46 121.711 148.166 121.574 147.889C121.7 147.565 121.368 147.334 121.392 147.006C121.416 146.678 121.191 146.423 121.143 146.12C121.004 145.258 120.818 144.401 120.772 143.504C120.652 142.482 120.618 141.451 120.671 140.423C120.734 139.503 120.852 138.588 121.026 137.682C121.272 136.594 121.62 135.532 122.066 134.509C122.467 133.57 122.975 132.681 123.582 131.86L124.672 130.39C124.721 130.352 124.773 130.32 124.828 130.293Z" fill="white"/>
<path d="M141.591 151.282C141.482 151.563 141.354 151.836 141.209 152.1C141.051 152.39 140.91 152.688 140.787 152.995C140.287 153.974 139.71 154.912 139.061 155.8C138.653 156.363 138.222 156.912 137.774 157.444C137.432 157.86 137.074 158.258 136.665 158.655C136.255 159.052 135.749 159.511 135.311 159.954C135.062 160.197 134.794 160.421 134.51 160.623C134.045 161.025 133.524 161.358 132.964 161.611C132.706 161.695 132.433 161.722 132.164 161.689C131.895 161.656 131.637 161.563 131.408 161.419C131.072 161.16 130.786 160.842 130.566 160.48C130.465 160.312 130.35 160.153 130.222 160.004C130.15 159.846 130.001 159.723 129.907 159.574C129.814 159.425 129.791 159.177 129.563 159.098C129.563 159.098 129.548 159.064 129.541 159.05C129.326 158.474 128.872 158.032 128.667 157.443C128.621 157.182 128.475 156.95 128.261 156.796C128.194 156.76 128.185 156.63 128.147 156.548C128.128 156.512 128.117 156.472 128.114 156.432C128.111 156.391 128.116 156.35 128.13 156.312C128.144 156.273 128.165 156.238 128.193 156.208C128.221 156.179 128.255 156.155 128.292 156.139C128.685 155.947 129.063 155.728 129.425 155.484C129.996 155.135 130.529 154.727 131.016 154.267C131.87 153.604 132.688 152.893 133.463 152.139C133.822 151.615 134.306 151.217 134.708 150.732L135.977 149.213C137.764 150.114 139.647 150.808 141.591 151.282Z" fill="white"/>
<path d="M150.471 147.167C151.055 146.07 151.54 144.923 151.919 143.739C152.157 143.114 152.343 142.471 152.476 141.815C152.479 141.778 152.49 141.742 152.508 141.709C152.526 141.677 152.55 141.648 152.579 141.625C152.609 141.602 152.642 141.586 152.678 141.576C152.714 141.567 152.752 141.565 152.788 141.571C153.101 141.617 153.416 141.642 153.732 141.645C154.219 141.654 154.706 141.697 155.192 141.665C156.041 141.607 156.893 141.574 157.734 141.445C158.538 141.385 159.335 141.247 160.113 141.033C160.35 141.132 160.537 140.905 160.79 140.947C161.043 140.989 161.186 140.664 161.456 140.782C161.456 140.782 161.525 140.75 161.56 140.734L162.79 140.292C163.011 140.191 163.121 140.249 163.229 140.466C163.337 140.683 163.348 141.103 163.525 141.397C163.715 141.656 163.851 141.951 163.924 142.264C163.963 142.53 164.105 142.748 164.151 142.993C164.328 143.536 164.469 144.09 164.573 144.651C164.614 144.878 164.675 145.101 164.755 145.318C164.796 145.666 164.804 146.017 164.779 146.366C164.782 146.464 164.749 146.56 164.686 146.634C164.53 146.883 164.332 147.104 164.102 147.287C163.988 147.395 163.852 147.478 163.703 147.53C163.554 147.581 163.395 147.6 163.238 147.584C162.877 147.734 162.495 147.826 162.105 147.856C161.328 148.016 160.543 148.125 159.752 148.181C159.25 148.212 158.745 148.186 158.245 148.258L158.14 148.265C157.446 148.296 156.752 148.288 156.059 148.238C155.377 148.152 154.69 148.127 154.012 148.03C153.134 147.934 152.342 147.699 151.498 147.57C151.144 147.468 150.8 147.333 150.471 147.167Z" fill="white"/>
<path d="M142.499 156.894C142.965 156.095 143.447 155.331 143.858 154.558C144.075 154.13 144.268 153.691 144.436 153.241C144.576 152.893 144.693 152.531 144.822 152.179C144.952 151.827 144.986 151.72 145.398 151.781C145.61 151.825 145.743 151.697 145.923 151.689C146.682 151.623 147.399 151.31 147.964 150.799C148.2 150.597 148.424 150.382 148.636 150.156C150.407 150.815 152.256 151.245 154.136 151.434C154.159 151.939 154.111 152.444 153.994 152.935C153.891 153.691 153.748 154.449 153.592 155.196C153.516 155.574 153.386 155.942 153.272 156.311C153.159 156.681 153.114 156.91 153.026 157.209C152.939 157.507 152.841 157.803 152.764 158.105C152.621 158.692 152.413 159.26 152.144 159.8C152.043 160.032 151.892 160.239 151.702 160.405C151.512 160.572 151.288 160.695 151.045 160.765C150.978 160.779 150.909 160.783 150.841 160.775C150.43 160.794 150.018 160.731 149.631 160.591C149.303 160.458 148.946 160.372 148.626 160.22C147.8 159.766 146.962 159.468 146.144 159.069C145.063 158.532 144.046 157.9 143.019 157.28C142.84 157.163 142.691 157.056 142.499 156.894Z" fill="white"/>
<path d="M157.544 151.625C158.468 151.567 159.408 151.526 160.34 151.43C161.272 151.335 162.205 151.188 163.138 151.059C163.151 151.195 163.123 151.299 163.159 151.358C163.364 151.728 163.499 152.132 163.558 152.55C163.758 153.292 163.923 154.05 164.059 154.78C164.195 155.51 164.274 156.133 164.418 156.808C164.485 157.056 164.493 157.317 164.441 157.568C164.389 157.82 164.278 158.056 164.118 158.256C163.963 158.451 163.771 158.614 163.553 158.734C163.335 158.855 163.095 158.931 162.848 158.958C162.055 159.048 161.285 159.186 160.496 159.282C159.668 159.391 158.834 159.443 157.999 159.439C157.634 159.467 157.267 159.468 156.901 159.445C156.591 159.404 156.276 159.391 155.941 159.37C156.782 156.861 157.32 154.261 157.544 151.625Z" fill="white"/>
<path d="M147.412 163.322C147.228 163.623 147.028 163.913 146.812 164.191C146.525 164.561 146.217 164.915 145.89 165.25C145.284 165.871 144.645 166.457 143.999 167.046C143.524 167.482 143.019 167.89 142.528 168.308C142.452 168.342 142.428 168.454 142.359 168.502C142.119 168.66 141.846 168.763 141.562 168.805C141.277 168.847 140.987 168.826 140.711 168.744C140.386 168.642 140.105 168.434 139.913 168.152C139.627 167.767 139.299 167.417 139.024 167.036C138.663 166.619 138.331 166.178 138.032 165.716C137.8 165.647 137.855 165.33 137.681 165.26C137.507 165.19 137.519 164.91 137.366 164.83C137.094 164.638 137.112 164.28 136.89 164.106C136.669 163.933 136.605 163.595 136.443 163.353C136.443 163.353 136.443 163.353 136.418 163.298C137.839 162.146 139.164 160.88 140.379 159.514C142.554 161.074 144.917 162.354 147.412 163.322Z" fill="white"/>
</g>
<defs>
<clipPath id="clip0_119_241">
<rect width="175.564" height="194.433" fill="white" transform="translate(0 85.7386) rotate(-29.2329)"/>
</clipPath>
</defs>
</svg>
