<svg width="178" height="245" viewBox="0 0 178 245" fill="none" xmlns="http://www.w3.org/2000/svg">
<path d="M177.521 175.987C176.912 176.393 176.247 176.691 175.552 176.87C174.485 177.148 173.386 177.291 172.24 177.503L173.037 179.151C171.496 179.291 170.085 179.376 168.675 179.563C168.187 179.629 167.727 179.943 167.256 180.142C167.532 180.648 167.794 181.161 168.091 181.651C168.264 181.906 168.453 182.148 168.655 182.376C168.634 182.493 168.611 182.61 168.591 182.724C167.259 182.844 165.921 182.93 164.595 183.094C163.269 183.259 161.876 183.512 160.524 183.727C160.556 183.977 160.611 184.392 160.652 184.676C159.303 184.55 158.055 184.468 156.817 184.306C155.72 184.161 155.072 184.721 154.935 185.971C154.872 186.241 154.774 186.499 154.644 186.74C154.415 186.6 154.109 186.518 153.967 186.306C153.182 185.142 152.062 185.069 150.748 185.063C150.78 185.48 150.829 185.835 150.829 186.189C150.829 186.876 150.538 187.053 150.009 186.67C149.753 186.483 149.541 186.227 149.3 186.018C148.34 185.189 147.377 184.37 146.287 183.439C146.213 183.763 146.116 184.081 145.996 184.388C145.817 184.707 145.623 185.016 145.415 185.313C145.162 185.11 144.807 184.961 144.676 184.68C144.094 183.468 143.091 182.999 141.951 182.8C140.646 182.566 139.334 182.398 137.714 182.167C138.357 182.705 138.758 183.145 139.238 183.433C140.247 184.025 141.274 184.575 142.335 185.066C144.993 186.309 147.404 187.914 149.314 190.328C149.881 191.034 150.285 191.742 149.372 192.344C150.402 193.869 151.364 195.318 152.344 196.752C152.85 197.492 153.062 198.185 152.324 198.609C153.522 199.824 154.766 200.979 155.877 202.267C156.337 202.799 156.831 203.685 156.732 204.302C156.604 205.131 156.974 205.52 157.247 206.096C157.988 207.643 158.739 209.197 159.335 210.814C159.73 211.884 159.233 212.396 158.186 212.286C157.828 212.244 157.468 212.222 156.88 212.168C158.102 213.434 159.099 214.586 159.172 216.311C159.218 217.39 159.312 218.466 159.303 219.545C159.303 220.323 158.791 220.668 158.081 220.456C157.442 220.263 156.819 220.022 155.979 219.731C156.779 221.503 156.427 223.054 156.124 224.614C155.996 225.272 155.985 225.952 155.892 226.62C155.819 227.136 155.839 227.781 155.56 228.117C155.333 228.392 154.726 228.297 154.228 228.376C154.363 228.861 154.527 229.336 154.72 229.797C155.636 231.677 155.525 233.556 154.839 235.474C154.575 236.214 154.301 236.869 153.417 236.673C153.237 238.866 153.089 240.983 152.862 243.094C152.815 243.518 152.472 243.904 152.266 244.306C151.87 244.062 151.341 243.923 151.102 243.559C150.338 242.391 149.68 241.141 148.98 239.92C148.29 240.844 147.953 240.869 147.235 239.939C146.682 239.217 146.229 238.41 145.854 237.831C145.377 237.629 144.821 237.566 144.757 237.338C144.379 235.961 143.382 235.183 142.454 234.363C141.406 233.442 140.69 232.148 140.433 230.708C140.393 230.506 140.317 230.31 140.241 230.076L139.619 230.854L135.03 224.259L132.221 226.69C132.07 226.475 131.93 226.269 131.782 226.057C131.256 225.326 130.802 224.506 130.183 223.883C129.276 223.003 128.593 221.882 128.203 220.63C128.06 220.248 127.894 219.877 127.705 219.519C127.452 219.836 127.202 220.136 126.946 220.437C126.908 220.481 126.833 220.484 126.693 220.538C126.062 219.725 125.353 218.934 124.777 218.035C124.227 217.199 123.767 216.298 123.404 215.349C123.128 214.592 123.087 213.735 122.945 212.925C122.765 212.925 122.654 212.925 122.587 212.963C122.279 213.162 121.98 213.384 121.593 213.656C119.767 210.089 116.766 207.011 118.223 202.239C117.903 202.485 117.737 202.802 117.496 203.014C117.287 203.232 117.011 203.356 116.722 203.362C116.516 203.315 116.303 202.944 116.225 202.672C116.085 202.194 116.106 201.66 115.957 201.188C115.659 200.26 115.533 199.276 115.586 198.294C115.639 197.312 115.87 196.351 116.265 195.467C116.335 195.299 116.364 195.109 116.335 195.22C115.896 194.863 115.309 194.568 115.338 194.378C115.585 192.66 115.108 190.85 115.919 189.192C116.184 188.654 116.196 187.971 116.341 187.293C115.855 188.395 115.652 189.749 114.931 190.284C113.872 191.075 113.698 192.182 113.262 193.23C112.825 194.277 112.462 195.264 112.072 196.287C111.831 196.919 111.427 197.179 110.816 196.948C110.561 196.832 110.312 196.7 110.072 196.552C109.56 198.134 109.063 199.663 108.586 201.191C108.295 202.125 107.856 202.346 107.03 201.919C106.822 201.773 106.606 201.64 106.384 201.52C106.088 201.43 105.785 201.362 105.48 201.318C105.413 201.739 105.212 202.201 105.305 202.584C105.289 202.612 105.274 202.641 105.262 202.672C104.852 203.811 104.075 204.549 103.261 205.311C103.139 205.311 103.017 205.337 102.898 205.356C102.664 205.331 102.429 205.339 102.197 205.381C101.679 205.248 101.325 204.805 100.955 204.375C100.647 204.017 100.33 203.666 99.8386 203.109C98.8441 204.644 97.8816 206.023 97.0295 207.482C96.4131 208.539 95.7704 208.672 94.994 207.716C94.7323 207.4 94.4822 207.083 94.0925 206.596C93.2696 207.897 92.5281 209.083 91.7662 210.254C91.4754 210.694 91.2166 211.298 90.8153 211.456C90.5943 211.545 90.2657 211.324 89.9197 211.105C89.7871 210.939 89.6066 210.828 89.4079 210.789C88.6816 209.79 88.0125 208.744 87.4043 207.656C87.2647 206.754 87.1542 205.843 86.9681 204.928C86.8053 204.121 85.6566 203.979 85.2379 204.612C84.4767 205.745 83.9283 207.03 83.624 208.393C82.3096 207.615 81.5652 205.862 81.2977 204.305C81.2092 203.71 81.1809 203.106 81.2133 202.504C81.4948 201.177 81.4607 199.794 81.1142 198.485C80.7677 197.176 80.1202 195.985 79.233 195.024C79.7099 194.559 80.1897 194.094 80.6608 193.625C80.738 193.528 80.793 193.412 80.8213 193.287C80.8496 193.163 80.8504 193.032 80.8237 192.907C80.7607 192.803 80.6738 192.72 80.5717 192.664C80.4697 192.609 80.356 192.583 80.2421 192.591C79.8999 192.684 79.5758 192.844 79.2854 193.062C78.8114 193.378 78.3839 193.334 78.2531 192.746C77.7471 190.505 77.2295 188.24 78.6514 186.126C78.6834 186.078 78.6253 185.958 78.5904 185.781C78.4032 185.978 78.1906 186.144 77.9594 186.274C77.5695 186.391 77.1732 186.479 76.7729 186.54C76.7878 186.119 76.8325 185.701 76.9067 185.287C77.0579 184.632 77.2818 183.996 77.5232 183.186C77.0172 183.234 76.834 183.243 76.6508 183.265C75.9703 183.354 75.287 183.43 74.6152 183.487C74.7635 183.17 74.906 182.832 75.0165 182.496C75.1626 182.473 75.3024 182.416 75.4263 182.328C75.5502 182.241 75.6554 182.125 75.7348 181.99C76.0586 181.444 76.3416 180.87 76.581 180.275C76.9038 180.212 77.2266 180.142 77.5493 180.063C77.9216 179.974 78.2182 179.519 78.5497 179.231C78.4915 179.145 78.4333 179.057 78.3723 178.971C78.2531 178.971 78.1309 178.971 78.0146 178.936C77.6831 178.873 77.3516 178.803 77.0201 178.737C77.1774 178.396 77.3727 178.077 77.6017 177.788C78.9335 176.487 80.2944 175.225 81.6728 173.927C81.6989 173.978 81.6728 173.911 81.6408 173.867C81.35 173.522 81.0592 173.18 80.7481 172.839C81.101 172.558 81.4825 172.322 81.8851 172.136C83.4233 171.658 84.9762 171.25 86.5057 170.817C85.5636 169.595 84.6738 168.386 83.72 167.235C83.3569 166.774 82.9065 166.405 82.3998 166.152C80.5678 165.336 80.5532 165.371 81.9985 163.798C80.309 162.108 79.1749 159.751 76.7875 158.912C76.1826 158.697 76.1652 158.134 76.6159 157.726C77.1656 157.181 77.7858 156.727 78.4566 156.378C79.5849 155.855 80.7829 155.498 82.0188 155.045C81.0574 152.781 80.6564 150.283 80.8556 147.799C80.9894 145.923 81.4052 144.046 80.8382 142.173C80.7987 142.043 80.7987 141.903 80.8382 141.774C80.9691 141.458 81.0796 140.973 81.3035 140.888C81.5274 140.803 81.9025 141.084 82.1555 141.29C82.5219 141.584 82.7981 142.027 83.1878 142.274C84.4731 143.094 85.7671 143.904 87.1019 144.619C88.1138 145.157 89.1956 145.543 90.3733 146.052C90.4722 144.549 90.5129 143.271 90.6641 142.008C90.7193 141.562 90.9694 140.942 91.2835 140.799C91.5975 140.657 92.0861 141.037 92.4466 141.277C93.0282 141.657 93.5284 142.198 94.1303 142.543C95.8576 143.492 97.6198 144.372 99.2628 145.226C100.321 144.666 101.4 143.891 102.587 143.514C104.549 142.882 104.724 143.087 105.294 145.318C105.529 146.239 105.721 147.172 105.998 148.394C106.205 147.953 106.442 147.53 106.707 147.128C107.044 146.701 107.399 146.097 107.832 145.989C108.536 145.821 108.78 146.584 108.996 147.191C109.942 149.821 110.167 152.693 109.644 155.46C109.557 155.813 109.535 156.182 109.58 156.545C109.755 157.495 110.045 158.4 110.2 159.339C110.354 160.279 110.351 161.238 110.508 162.159C110.566 162.513 110.816 163.02 111.072 163.108C111.328 163.197 111.729 162.836 111.959 162.564C112.584 161.823 112.392 160.937 112.25 160.061C112.107 159.184 112.017 158.21 111.88 157.289C111.7 156.067 111.496 154.849 111.299 153.628C111.258 153.378 111.206 153.128 111.159 152.881C111.415 152.881 111.671 152.881 111.924 152.881C112.089 152.922 112.25 152.982 112.404 153.058C112.005 150.337 111.773 147.733 112.633 145.147C113.145 143.613 113.419 142.018 112.924 140.385C112.907 140.328 113.009 140.227 113.16 139.961L116.454 143.495C116.484 143.442 116.58 143.245 116.69 143.059C117.932 140.92 119.156 138.771 120.444 136.667C120.642 136.35 121.244 135.99 121.482 136.097C121.817 136.252 122.064 136.8 122.203 137.233C122.293 137.64 122.332 138.058 122.32 138.477C123.774 137.607 125.097 136.686 126.513 136.031C128.304 135.199 128.688 135.581 128.479 137.66C128.479 137.714 128.534 137.774 128.607 137.917L129.36 137.366C130.389 136.61 131.395 135.822 132.451 135.104C133.507 134.385 134.079 134.635 134.393 135.986C134.507 136.444 134.57 136.915 134.58 137.388C134.58 138.186 134.527 138.97 134.489 139.898C134.882 139.863 135.214 139.85 135.539 139.803C137.284 139.54 139.029 139.233 140.797 139.012C142.187 138.834 142.597 139.284 142.422 140.765C142.291 141.882 142.062 142.98 141.864 144.163L142.736 144.084C144.405 143.935 146.072 143.742 147.744 143.663C148.247 143.641 148.994 143.78 149.198 144.144C149.401 144.508 149.14 145.249 148.997 145.799C148.901 146.169 148.663 146.498 148.343 147.128C150 147.388 151.483 147.606 152.964 147.862C153.449 147.945 154.164 147.976 154.336 148.302C154.508 148.628 154.199 149.324 154.031 149.831C153.815 150.348 153.571 150.851 153.301 151.337C155.851 151.802 158.212 152.286 160.588 152.647C161.539 152.792 161.94 153.33 161.536 154.286C161.321 154.792 161.065 155.28 160.832 155.764C161.905 156.004 162.868 156.175 163.836 156.45C164.709 156.7 165.06 157.4 164.764 158.321C164.496 159.172 164.124 159.985 163.752 160.934C164.982 161.915 166.238 162.953 167.532 163.94C168.224 164.472 168.303 164.89 167.698 165.554C167.364 165.921 167.009 166.273 166.613 166.678C168.009 167.453 169.289 168.13 170.533 168.893C170.941 169.194 171.32 169.54 171.664 169.924C171.336 170.32 171.004 170.712 170.682 171.108C170.644 171.152 170.644 171.228 170.606 171.354C171.187 171.785 171.769 172.212 172.351 172.668C173.732 173.759 175.122 174.725 176.986 174.18C177.248 174.104 177.858 174.535 177.94 174.851C177.962 175.063 177.935 175.278 177.862 175.477C177.789 175.675 177.672 175.85 177.521 175.987Z" fill="white"/>
<path d="M166.208 82.6714C166.432 82.4878 166.63 82.2442 166.708 82.2821C166.874 82.3612 167.101 82.6207 167.077 82.7568C167.043 82.9498 166.804 83.1017 166.653 83.2726L166.208 82.6714Z" fill="white" stroke="#231F20" stroke-miterlimit="10"/>
<path d="M165.425 82.3359L164.695 82.4593L165.51 82.953L165.027 83.3295L164.864 83.1334C164.87 82.1746 164.87 82.1746 165.425 82.3359Z" fill="white" stroke="#231F20" stroke-miterlimit="10"/>
<path d="M134.34 154.764C134.325 144.592 130.746 98.5145 117.243 95.0381C109.594 93.0635 98.7893 97.0511 101.84 113.552C102.656 117.965 111.438 121.194 118.321 119.41C130.808 116.176 139.443 95.9127 136.239 79.79C131.897 57.9735 115.859 50.6498 113.08 53.6463C110.826 56.0794 103.193 66.5641 117.251 68.2146C125.226 67.7822 133.973 49.4389 131.03 35.8774C129.84 30.3899 126.824 26.1557 125.558 24.3808C122.276 19.7882 119.982 17.8285 115.929 17.9279C111.749 18.0288 110.448 19.4131 110.134 24.2077C109.795 29.3286 112.656 31.0222 116.918 30.9292C123.969 30.7801 131.686 9.05193 126.686 2.12157" stroke="white" stroke-width="4" stroke-miterlimit="10" stroke-linecap="round"/>
<path d="M78.1474 163.813C76.8012 162.181 65.1219 148.267 52.0237 151.679C50.6107 152.048 42.557 154.147 41.1207 160.793C39.6844 167.44 45.3947 178.767 50.7154 178.653C58.4522 178.49 61.5137 169.748 60.4205 165.135C58.7633 158.142 42.1558 152.482 31.6976 157.813C30.8631 158.237 20.0008 163.989 19.9339 174.55C19.8816 182.842 26.5077 191.045 30.0345 190.02C33.3112 189.067 35.4889 179.695 32.5175 174.321C28.5575 167.139 16.1426 168.373 9.07158 173.228C5.5419 175.647 1.15743 180.462 2.14015 183.034C2.56755 184.154 3.92825 184.621 5.16974 184.826" stroke="white" stroke-width="4" stroke-miterlimit="10" stroke-linecap="round"/>
</svg>
