<svg width="141" height="113" viewBox="0 0 141 113" fill="none" xmlns="http://www.w3.org/2000/svg">
<path d="M24.9453 27.4256L21.627 18.5383C21.2876 17.6401 22.0651 17.061 23.3604 17.2428L28.763 18.0077C30.0583 18.1895 31.3797 19.0625 31.7192 19.9607L35.0563 28.8585C35.3958 29.7567 34.6182 30.3358 33.3229 30.154L27.9251 29.3917C26.6298 29.2099 25.3036 28.3343 24.9453 27.4256Z" fill="white"/>
<path d="M44.7569 17.4908L41.4085 8.6064C41.069 7.70816 40.1628 7.91356 39.3749 9.10439L36.1007 13.9965C35.3147 15.1687 34.9552 16.8474 35.2947 17.7457L38.6432 26.63C38.9826 27.5283 39.8888 27.3229 40.6767 26.132L43.9509 21.2399C44.7557 20.0782 45.0964 18.389 44.7569 17.4908Z" fill="white"/>
<path d="M32.2961 45.0655L27.4249 35.2357C26.9325 34.2459 27.7636 33.4535 29.2831 33.4709L35.6141 33.5437C37.1289 33.5585 38.7417 34.3701 39.2529 35.3705L44.1058 45.2164C44.5982 46.2063 43.7671 46.9986 42.2523 46.9838L35.9213 46.9111C34.4154 46.8749 32.7884 46.0554 32.2961 45.0655Z" fill="white"/>
<path d="M53.564 32.1307L48.6746 22.317C48.1775 21.3245 47.1522 21.7198 46.3774 23.2004L43.1533 29.3685C42.3785 30.849 42.1512 32.8509 42.6461 33.8487L47.5355 43.6624C48.0279 44.6522 49.0532 44.2569 49.828 42.7763L53.0543 36.6029C53.8269 35.1277 54.0564 33.1205 53.564 32.1307Z" fill="white"/>
<path d="M44.0606 63.3735L37.7814 54.6261C37.1497 53.7492 37.8428 52.8013 39.3373 52.5158L45.558 51.3185C47.0525 51.033 48.7791 51.5139 49.4086 52.396L55.6878 61.1435C56.3173 62.0257 55.6242 62.9736 54.1297 63.2591L47.909 64.4564C46.4167 64.7365 44.697 64.253 44.0606 63.3735Z" fill="white"/>
<path d="M62.9662 46.3529L56.6691 37.6349C56.0327 36.7554 55.0837 37.3574 54.5487 38.9713L52.3355 45.7148C51.8004 47.3287 51.8825 49.3515 52.5189 50.231L58.8183 58.9437C59.4546 59.8231 60.4014 59.2264 60.9364 57.6126L63.1497 50.8691C63.6847 49.2552 63.5885 47.2245 62.9662 46.3529Z" fill="white"/>
<path d="M58.8168 78.5898L51.5979 70.8831C50.8684 70.1029 51.4504 69.0603 52.889 68.5467L58.9087 66.4099C60.3472 65.8963 62.1125 66.1161 62.8373 66.8937L70.0584 74.5951C70.788 75.3753 70.206 76.4179 68.7652 76.9369L62.7477 79.0683C61.3091 79.5819 59.5392 79.3594 58.8168 78.5898Z" fill="white"/>
<path d="M75.533 58.8007L68.3075 51.11C67.5757 50.3352 66.7087 51.0747 66.3702 52.7585L64.9505 59.7923C64.612 61.4761 64.9305 63.4727 65.66 64.2529L72.8877 71.9383C73.6195 72.7131 74.4843 71.979 74.825 70.2898L76.2425 63.2614C76.5832 61.5722 76.2647 59.5756 75.533 58.8007Z" fill="white"/>
<path d="M74.7614 92.8773L66.7817 86.2122C65.9779 85.5418 66.4351 84.4232 67.8161 83.7134L73.5467 80.7524C74.923 80.0399 76.6924 80.0125 77.4962 80.6829L85.4782 87.3427C86.2868 88.0157 85.8226 89.137 84.4416 89.8468L78.711 92.8078C77.3228 93.5071 75.5559 93.5425 74.7614 92.8773Z" fill="white"/>
<path d="M89.2071 70.8601L81.2116 64.2191C80.4031 63.546 79.622 64.399 79.4679 66.1263L78.8063 73.3124C78.6664 75.0475 79.1739 76.9786 79.9825 77.6516L87.978 84.2926C88.7818 84.9631 89.5629 84.11 89.7217 82.3854L90.3832 75.1993C90.5373 73.472 90.011 71.5305 89.2071 70.8601Z" fill="white"/>
<path d="M27.5026 0.819432L25.4703 7.99196C25.2695 8.71451 25.8048 9.97784 26.6538 10.8047L30.2317 14.2596C31.0853 15.0891 31.9465 15.1739 32.152 14.454L34.168 7.27898C34.371 6.5511 33.8357 5.28776 32.9845 4.4662L29.4089 1.00605C28.5646 0.18176 27.7034 0.0968848 27.5026 0.819432Z" fill="white"/>
<path d="M89.7126 88.9753L93.652 94.4901C94.0517 95.0474 96.4452 96.7531 99.0142 98.3003L109.655 104.725C112.208 106.269 114.897 108.408 114.653 108.2L110.126 101.354C109.733 100.794 106.828 98.7311 104.268 97.1892L93.627 90.7649C91.0626 89.2204 89.3248 88.4312 89.7126 88.9753Z" fill="white"/>
</svg>
