<svg width="138" height="99" viewBox="0 0 138 99" fill="none" xmlns="http://www.w3.org/2000/svg">
<path d="M118.426 75.5522L122.519 83.0425C122.937 83.7998 122.151 84.2385 120.768 84.0243L114.999 83.1252C113.616 82.911 112.16 82.1258 111.742 81.3685L107.628 73.8686C107.21 73.1113 107.996 72.6726 109.379 72.8869L115.143 73.7835C116.526 73.9978 117.987 74.7853 118.426 75.5522Z" fill="white"/>
<path d="M98.0996 82.7561L102.224 90.2456C102.642 91.0028 103.588 90.8786 104.345 89.9362L107.492 86.0665C108.247 85.1394 108.518 83.7736 108.1 83.0163L103.976 75.5269C103.558 74.7696 102.612 74.8939 101.855 75.8363L98.7082 79.7059C97.9321 80.6235 97.6816 81.9989 98.0996 82.7561Z" fill="white"/>
<path d="M109.492 60.6464L115.29 68.9909C115.876 69.8313 115.048 70.4431 113.438 70.3532L106.731 69.9786C105.126 69.891 103.366 69.1419 102.759 68.2919L96.9792 59.9351C96.3934 59.0947 97.2215 58.4829 98.8261 58.5704L105.533 58.945C107.13 59.0497 108.906 59.8061 109.492 60.6464Z" fill="white"/>
<path d="M87.8198 70.251L93.6366 78.5831C94.2276 79.4259 95.2873 79.151 96.0109 77.9691L99.0216 73.0453C99.7452 71.8634 99.8552 70.2247 99.2662 69.3776L93.4494 61.0455C92.8635 60.2052 91.8039 60.4801 91.0802 61.6619L88.0676 66.5901C87.3459 67.7676 87.234 69.4107 87.8198 70.251Z" fill="white"/>
<path d="M95.8418 44.9711L103.06 52.4933C103.786 53.2475 103.114 53.9944 101.551 54.1554L95.0434 54.8331C93.4799 54.9941 91.6205 54.512 90.8966 53.7535L83.6781 46.2313C82.9541 45.4728 83.626 44.7259 85.1895 44.5649L91.697 43.8872C93.2585 43.7305 95.1107 44.2146 95.8418 44.9711Z" fill="white"/>
<path d="M76.9371 58.0606L84.1726 65.5595C84.9037 66.316 85.8691 65.867 86.3302 64.5633L88.2331 59.1149C88.6943 57.8112 88.4753 56.1398 87.7442 55.3833L80.5066 47.8886C79.7755 47.1321 78.8122 47.5769 78.3511 48.8806L76.4481 54.3289C75.987 55.6326 76.2214 57.3112 76.9371 58.0606Z" fill="white"/>
<path d="M79.226 31.6954L87.3714 38.4066C88.1946 39.0859 87.6466 39.9164 86.1571 40.2682L79.9237 41.7303C78.4343 42.0821 76.5511 41.8132 75.733 41.1362L67.5856 34.4294C66.7624 33.75 67.3104 32.9196 68.8019 32.5634L75.0333 31.1057C76.5227 30.7538 78.4111 31.0252 79.226 31.6954Z" fill="white"/>
<path d="M62.8216 47.176L70.9729 53.8743C71.7981 54.5493 72.6678 53.9829 72.9163 52.6118L73.9602 46.8847C74.2086 45.5136 73.7412 43.852 72.9179 43.1727L64.7646 36.4787C63.9393 35.8037 63.0717 36.3659 62.8212 37.7412L61.7793 43.464C61.5289 44.8394 61.9963 46.501 62.8216 47.176Z" fill="white"/>
<path d="M61.4144 19.126L70.2973 25.0163C71.1921 25.6089 70.781 26.5082 69.3653 27.0246L63.4918 29.1804C62.0812 29.6993 60.2098 29.634 59.315 29.0414L50.4302 23.1553C49.5303 22.5604 49.9485 21.6592 51.3642 21.1428L57.2377 18.9869C58.6617 18.4796 60.5299 18.5382 61.4144 19.126Z" fill="white"/>
<path d="M47.5574 36.5563L56.4554 42.4276C57.3553 43.0226 58.1265 42.3583 58.1769 40.9422L58.4083 35.0519C58.4432 33.6287 57.7798 32.0118 56.8799 31.4168L47.9819 25.5455C47.0872 24.9529 46.316 25.6172 46.2604 27.0309L46.029 32.9212C45.9787 34.3373 46.6626 35.9638 47.5574 36.5563Z" fill="white"/>
<path d="M117.454 97.3546L119.137 91.5435C119.303 90.958 118.654 89.89 117.701 89.1663L113.688 86.1408C112.73 85.4146 111.812 85.3018 111.642 85.885L109.976 91.6989C109.808 92.2888 110.458 93.3567 111.412 94.0762L115.424 97.106C116.371 97.8274 117.288 97.9401 117.454 97.3546Z" fill="white"/>
<path d="M45.8404 21.6001L41.3099 16.8586C40.8504 16.3794 38.2052 14.8545 35.3844 13.4516L23.6997 7.62734C20.8964 6.22729 17.9107 4.33059 18.1822 4.51394L23.4219 10.3825C23.8742 10.8637 27.0844 12.7081 29.8948 14.1062L41.5796 19.9305C44.3951 21.331 46.2864 22.0679 45.8404 21.6001Z" fill="white"/>
</svg>
