<svg width="92" height="89" viewBox="0 0 92 89" fill="black" xmlns="http://www.w3.org/2000/svg">
<path d="M48.4681 31.1564C48.5335 31.3145 48.7189 31.2982 48.8389 31.3854C48.9554 31.4574 49.0527 31.5566 49.1224 31.6745C49.2714 31.8999 49.3545 32.1624 49.3623 32.4325C49.3462 32.6359 49.2825 32.8327 49.1764 33.007C49.0704 33.1813 48.9249 33.3282 48.7517 33.436C48.5418 33.5672 48.2949 33.6266 48.0483 33.605C47.8467 33.6073 47.6528 33.6829 47.503 33.8177C47.3239 33.9272 47.1783 34.0837 47.0821 34.2703C46.986 34.4569 46.9429 34.6663 46.9577 34.8757L46.9577 36.0919C47.2732 36.2062 47.604 36.2724 47.9392 36.2882C48.7512 36.4689 49.5236 36.796 50.2184 37.2535C50.7749 37.6428 51.2554 38.1308 51.6361 38.6933C51.9982 39.2395 52.281 39.8344 52.4758 40.4602C52.627 40.9206 52.7383 41.3932 52.8084 41.8727C52.8422 42.0239 52.8677 42.1768 52.8847 42.3308C52.8847 42.4944 52.9447 42.658 52.9611 42.8271C52.9474 42.9886 52.9474 43.151 52.9611 43.3125C53.0463 43.9101 53.0719 44.5148 53.0374 45.1176C53.054 45.3275 53.0299 45.5386 52.9665 45.7393C52.9066 45.9193 52.9665 46.1265 52.8847 46.3174C52.803 46.5083 52.9502 46.6392 52.803 46.77C52.7988 47.0819 52.732 47.3898 52.6067 47.6753C52.5412 47.9535 52.4049 48.2207 52.3231 48.5261C52.2413 48.8315 52.0341 48.9569 52.0559 49.2351C51.8978 49.4205 51.8433 49.6604 51.6961 49.8622C51.5653 50.063 51.4452 50.2706 51.3362 50.4839C51.0934 50.9082 50.8181 51.3129 50.5128 51.6946C50.2239 52.0491 49.9185 52.3982 49.6295 52.7526C49.396 53.0594 49.131 53.3409 48.8389 53.5925C48.37 53.9742 47.9501 54.4105 47.4594 54.765C47.0415 55.0997 46.5902 55.3903 46.1126 55.6321C45.9944 55.6821 45.8674 55.7078 45.7391 55.7078C45.6108 55.7078 45.4838 55.6821 45.3656 55.6321C44.9946 55.4641 44.6465 55.2497 44.3296 54.9941C44.0079 54.7759 43.7298 54.4978 43.3972 54.3015L43.3972 54.2742C42.95 53.8488 42.4648 53.4562 42.0613 52.9926C41.6902 52.6176 41.3441 52.2186 41.0253 51.7983C40.7088 51.3671 40.4158 50.9193 40.1474 50.4567C39.9729 50.1349 39.7657 49.8241 39.6021 49.5023C39.3352 48.9778 39.1162 48.4302 38.9478 47.8662C38.7451 47.391 38.6093 46.8899 38.5443 46.3774C38.3698 46.1102 38.4843 45.7938 38.3971 45.5048C38.3533 45.1955 38.3533 44.8816 38.3971 44.5722C38.3971 44.2559 38.3971 43.9451 38.3971 43.6342C38.3971 43.4379 38.4516 43.247 38.4734 43.0561C38.4762 42.8722 38.5 42.6893 38.5443 42.5108C38.5967 42.3113 38.6242 42.1062 38.6261 41.9C38.7015 41.394 38.8219 40.8957 38.986 40.4111C39.1266 39.9554 39.3206 39.5179 39.564 39.1077C39.7349 38.8048 39.9359 38.5198 40.1637 38.257C40.3879 38.0019 40.6264 37.7597 40.878 37.5316C41.1016 37.3411 41.3447 37.1747 41.6032 37.0354C42.2171 36.6849 42.8837 36.4363 43.5771 36.2991C43.7412 36.2671 43.9068 36.2434 44.0733 36.2282C44.2116 36.202 44.3482 36.1674 44.4822 36.1246L44.4822 35.8356C44.4822 35.432 44.4822 35.023 44.4822 34.614C44.5128 34.2197 44.601 33.832 44.744 33.4633C44.9795 32.8833 45.354 32.3701 45.8345 31.969C46.2233 31.6615 46.6731 31.4403 47.154 31.32C47.2849 31.32 47.4267 31.26 47.5684 31.2491C47.5684 31.2491 47.612 31.2 47.6339 31.1727L48.4681 31.1564Z" fill="black"/>
<path d="M45.3825 72.9256C45.3116 72.762 45.1262 72.7893 45.0172 72.6856C44.7675 72.458 44.5034 72.2467 44.2266 72.053C43.8467 71.7793 43.4826 71.4843 43.136 71.1695C42.7216 70.8335 42.3548 70.4427 42.0455 70.0079C41.9092 69.8007 41.7238 69.6316 41.5657 69.4353C41.5305 69.3696 41.5031 69.3001 41.4839 69.2281C43.0299 68.6335 44.4642 67.7816 45.726 66.7085C47.0264 67.7612 48.4812 68.6073 50.0391 69.2172C49.8537 69.4517 49.6519 69.6753 49.4938 69.9207C49.2193 70.3005 48.8987 70.6449 48.5396 70.9459C48.1545 71.3179 47.7406 71.659 47.3018 71.9658C47.1182 72.0912 46.9482 72.2356 46.7947 72.3966C46.607 72.5935 46.378 72.7462 46.1241 72.8438C46.1241 72.8438 46.0804 72.8983 46.0586 72.9256L45.3825 72.9256Z" fill="black"/>
<path d="M53.9371 37.6517L54.0898 37.7281C54.8106 38.0372 55.4931 38.4288 56.1236 38.8952C56.5723 39.199 56.9856 39.5521 57.3559 39.9477C57.7267 40.3513 58.1356 40.7221 58.4464 41.1584C58.7763 41.5824 59.0734 42.0309 59.3352 42.5C59.5261 42.8545 59.7333 43.198 59.8805 43.5907C60.1626 44.2097 60.4066 44.8453 60.6112 45.494C60.7863 46.0289 60.9229 46.5757 61.0201 47.1301C61.0746 47.43 61.1346 47.7354 61.1946 48.0354C61.1961 48.2431 61.2217 48.4499 61.2709 48.6516C61.3745 48.8698 61.2709 49.077 61.3418 49.2734C61.393 49.6348 61.4221 49.9991 61.4291 50.3641C61.5042 50.948 61.528 51.5375 61.4999 52.1256C61.4907 52.3301 61.4305 52.529 61.3248 52.7043C61.2191 52.8795 61.0712 53.0256 60.8947 53.1291C60.6631 53.2411 60.4103 53.3024 60.1531 53.309C59.7115 53.309 59.2862 53.189 58.8445 53.2163C58.5446 53.0691 58.1793 53.1618 57.8903 52.9709C57.5165 52.9408 57.1491 52.8563 56.7997 52.72C56.4563 52.6446 56.1219 52.5331 55.8019 52.3874C55.4366 52.2183 55.0603 52.0929 54.7114 51.9238C54.3624 51.7547 54.0952 51.6457 53.7899 51.4984C53.7252 51.461 53.6633 51.4191 53.6045 51.373C53.719 51.1767 53.8499 50.9912 53.948 50.7895C54.3334 50.0131 54.6509 49.2047 54.8968 48.3735C55.0214 47.9702 55.1162 47.5582 55.1803 47.141C55.2457 46.7102 55.2839 46.2848 55.3493 45.8594C55.4106 45.134 55.4306 44.4057 55.4093 43.678C55.3943 43.484 55.3688 43.2911 55.333 43.0999C55.3532 42.9187 55.3532 42.7357 55.333 42.5545C55.2968 42.3744 55.2713 42.1923 55.2566 42.0092C55.2185 41.8401 55.2185 41.6656 55.1694 41.5129C55.1174 41.0948 55.0149 40.6846 54.8641 40.2913C54.8238 39.939 54.7242 39.596 54.5696 39.2769C54.4093 38.7437 54.1724 38.2367 53.8662 37.7717L53.9371 37.6517Z" fill="black"/>
<path d="M37.5412 37.6788C37.4049 37.9242 37.2849 38.1206 37.1868 38.3224C36.9732 38.8157 36.791 39.3221 36.6415 39.8385C36.4922 40.3013 36.381 40.7755 36.3089 41.2564C36.2598 41.6 36.2053 41.9436 36.1399 42.2871C36.0745 42.6307 36.1399 42.9252 36.069 43.2306C35.992 43.924 35.9664 44.6222 35.9927 45.3193C35.9923 45.5293 36.0198 45.7383 36.0745 45.9411C36.0662 46.1507 36.0901 46.3604 36.1453 46.5628C36.1913 46.7412 36.2187 46.924 36.2271 47.1081C36.346 47.7182 36.5063 48.3195 36.707 48.9078C36.9226 49.5317 37.172 50.1434 37.454 50.7402C37.5577 50.942 37.6743 51.1369 37.8029 51.3238C37.7212 51.3729 37.6557 51.4219 37.5794 51.4601C37.0387 51.7501 36.4774 51.9998 35.9 52.2073C35.431 52.3872 34.9567 52.5454 34.4823 52.7035C34.2042 52.7962 33.937 52.8399 33.6426 52.9326C33.2924 52.9924 32.9464 53.0744 32.6066 53.178L32.5466 53.178C32.0192 53.2504 31.4862 53.2742 30.9544 53.2489C30.7763 53.2359 30.6041 53.1794 30.453 53.0843C30.3018 52.9892 30.1763 52.8585 30.0875 52.7035C29.9394 52.461 29.8654 52.1804 29.8748 51.8964C29.8748 51.6892 29.8748 51.4874 29.8748 51.2801C29.8748 50.7075 29.8748 50.1349 29.9675 49.5622C29.9948 49.3332 30.0002 49.0932 30.0438 48.8642C30.0973 48.6485 30.1212 48.4265 30.1147 48.2043C30.2947 48.0298 30.1474 47.7789 30.262 47.5717C30.3765 47.3644 30.3056 47.1299 30.3656 46.9173C30.5346 46.3119 30.6709 45.6956 30.9108 45.0957C31.1401 44.3911 31.4283 43.7069 31.7723 43.0506C32.0906 42.4681 32.4439 41.9053 32.8301 41.3655C33.3187 40.7281 33.8664 40.1383 34.4659 39.604C35.0104 39.1104 35.6106 38.6821 36.2544 38.3278L37.4104 37.6952C37.4533 37.685 37.4971 37.6795 37.5412 37.6788V37.6788Z" fill="black"/>
<path d="M42.1814 56.4502C42.0254 56.6009 41.8597 56.7412 41.6852 56.8701C41.4944 57.0117 41.3123 57.1646 41.14 57.3282C40.5178 57.8179 39.8578 58.2574 39.1661 58.6426C38.7299 58.888 38.2828 59.117 37.8302 59.3297C37.4813 59.4988 37.1268 59.6515 36.7397 59.7878C36.3526 59.9242 35.8836 60.0714 35.4638 60.2296C35.2274 60.3134 34.985 60.3791 34.7386 60.4259C34.3133 60.5486 33.8725 60.6092 33.43 60.6059C33.2361 60.5836 33.0496 60.5187 32.8837 60.416C32.7178 60.3132 32.5766 60.1751 32.4703 60.0114C32.3284 59.7414 32.2378 59.4474 32.2031 59.1443C32.1869 59.0042 32.1595 58.8656 32.1213 58.7298C32.1213 58.6044 32.0613 58.479 32.045 58.3535C32.0286 58.2281 32.0886 58.059 31.9632 57.9391C31.9632 57.9391 31.9632 57.9118 31.9632 57.9009C31.9959 57.4591 31.8323 57.0338 31.876 56.5866C31.9242 56.4025 31.8988 56.2068 31.8051 56.0412C31.7724 55.9976 31.8051 55.9103 31.8051 55.8449C31.8036 55.8156 31.8081 55.7863 31.8185 55.7588C31.8288 55.7314 31.8447 55.7064 31.8652 55.6854C31.8857 55.6644 31.9103 55.6478 31.9375 55.6368C31.9647 55.6258 31.9938 55.6205 32.0232 55.6213C32.3374 55.6141 32.6508 55.5849 32.961 55.534C33.4397 55.4779 33.9112 55.3719 34.3678 55.2177C35.1263 55.0411 35.8745 54.8226 36.6088 54.5633C37.0014 54.3288 37.4376 54.2142 37.8466 54.0179L39.1334 53.4071C40.0307 54.5339 41.0533 55.5548 42.1814 56.4502V56.4502Z" fill="black"/>
<path d="M49.2261 56.4338C49.9384 55.8924 50.6008 55.2883 51.2054 54.6286C51.5492 54.2916 51.8647 53.9268 52.1487 53.5379C52.1621 53.5148 52.1801 53.4946 52.2016 53.4786C52.223 53.4627 52.2476 53.4513 52.2736 53.4452C52.2997 53.439 52.3267 53.4383 52.353 53.443C52.3793 53.4477 52.4045 53.4577 52.4268 53.4725C52.617 53.5969 52.8156 53.708 53.0211 53.8051C53.3374 53.9578 53.6427 54.1324 53.9699 54.2578C54.5424 54.4759 55.1095 54.7104 55.6984 54.8795C56.2424 55.0825 56.8048 55.2323 57.3778 55.3267C57.5032 55.463 57.694 55.3703 57.8467 55.4739C57.9994 55.5776 58.1902 55.4085 58.332 55.5667C58.332 55.5667 58.3865 55.5667 58.4138 55.5667L59.3516 55.6485C59.5261 55.6485 59.5806 55.7194 59.5861 55.8939C59.5915 56.0684 59.4716 56.3465 59.4988 56.5919C59.5454 56.8186 59.5454 57.0524 59.4988 57.2791C59.4443 57.4645 59.4716 57.6499 59.4279 57.8245C59.3803 58.2325 59.3057 58.637 59.2044 59.0352C59.163 59.1961 59.1356 59.3603 59.1226 59.526C59.0449 59.7659 58.9445 59.9978 58.8227 60.2186C58.7954 60.2836 58.7448 60.3361 58.6809 60.3658C58.5039 60.4817 58.3084 60.5665 58.103 60.6167C57.9956 60.6534 57.8816 60.6665 57.7687 60.6553C57.6558 60.644 57.5466 60.6085 57.4486 60.5513C57.1673 60.5406 56.8894 60.4854 56.6253 60.3877C56.0697 60.2586 55.5232 60.0928 54.9895 59.8914C54.6514 59.7605 54.3297 59.5914 53.9808 59.4878L53.9099 59.4605C53.447 59.2726 52.9955 59.0577 52.5576 58.817C52.1378 58.5552 51.6961 58.3316 51.2817 58.0644C50.7365 57.7372 50.2893 57.3445 49.7768 57.0064C49.5759 56.833 49.3916 56.6413 49.2261 56.4338V56.4338Z" fill="black"/>
<path d="M41.085 60.3932C41.6302 60.0114 42.1755 59.6569 42.6771 59.2752C42.9478 59.0607 43.2063 58.8313 43.4514 58.588C43.6477 58.4026 43.8331 58.2008 44.0239 58.0099C44.2148 57.8191 44.2693 57.7591 44.5201 57.9227C44.6455 58.0154 44.7709 57.9718 44.8909 58.0209C45.4074 58.2061 45.9703 58.2176 46.494 58.0536C46.7085 57.9922 46.9197 57.9194 47.1265 57.8354C48.0861 58.8001 49.1654 59.6377 50.3381 60.3277C50.2011 60.6644 50.0176 60.9801 49.7928 61.2657C49.4984 61.7293 49.1767 62.182 48.8495 62.6237C48.6859 62.8473 48.4896 63.0491 48.3042 63.2563C48.1189 63.4636 48.0207 63.5999 47.8735 63.769C47.7263 63.938 47.5736 64.1016 47.4318 64.2761C47.1616 64.6164 46.8544 64.9255 46.5158 65.1978C46.38 65.3189 46.2192 65.4085 46.0449 65.4603C45.8705 65.5122 45.6869 65.525 45.507 65.4977C45.4591 65.4868 45.4131 65.4684 45.3707 65.4432C45.0961 65.331 44.846 65.1661 44.6346 64.9578C44.4601 64.7724 44.2529 64.6088 44.0894 64.4125C43.6859 63.8671 43.2278 63.4199 42.8134 62.9127C42.2682 62.2365 41.7938 61.5166 41.3085 60.8022C41.2267 60.6713 41.1613 60.5568 41.085 60.3932Z" fill="black"/>
<path d="M52.5086 61.4786C53.1302 61.7186 53.7572 61.9749 54.3952 62.1931C55.0331 62.4112 55.6874 62.5966 56.3363 62.793C56.3036 62.8857 56.2545 62.9457 56.26 62.9947C56.2826 63.2982 56.2493 63.6032 56.1618 63.8946C56.0691 64.4399 55.9492 64.9853 55.8183 65.5034C55.6874 66.0215 55.5511 66.4523 55.4421 66.9377C55.4113 67.1201 55.3379 67.2926 55.228 67.4413C55.1182 67.5901 54.9748 67.7109 54.8096 67.7939C54.6496 67.8747 54.4752 67.9231 54.2965 67.9362C54.1177 67.9493 53.9382 67.9269 53.7681 67.8703C53.2229 67.6903 52.6776 67.5485 52.1323 67.374C51.5586 67.1957 50.9975 66.9789 50.4529 66.725C50.2057 66.6327 49.9652 66.5234 49.7332 66.3978C49.5423 66.2778 49.3406 66.1742 49.1279 66.0597C50.4331 64.6727 51.568 63.1348 52.5086 61.4786V61.4786Z" fill="black"/>
<path d="M42.3618 66.0758C42.1511 66.217 41.9326 66.3463 41.7075 66.463C41.4085 66.6187 41.1008 66.7571 40.786 66.8775C40.2025 67.1011 39.6082 67.292 39.0084 67.4828C38.5667 67.6246 38.1142 67.7392 37.6671 67.8646C37.6071 67.8646 37.558 67.93 37.498 67.9409C37.2932 67.9717 37.0841 67.9574 36.8854 67.899C36.6867 67.8406 36.5031 67.7395 36.3475 67.6028C36.1658 67.4383 36.0448 67.2174 36.004 66.9757C35.9331 66.6375 35.8241 66.3103 35.7586 65.9777C35.648 65.5968 35.5641 65.2086 35.5078 64.816C35.377 64.7015 35.5078 64.5106 35.4151 64.4125C35.3224 64.3143 35.4151 64.1343 35.3388 64.0362C35.2188 63.8289 35.3388 63.5999 35.2461 63.4199C35.1534 63.2399 35.2134 63 35.1807 62.7928C35.1807 62.7928 35.1807 62.7927 35.1807 62.7491C36.4565 62.4237 37.7038 61.9951 38.9103 61.4675C39.8624 63.1427 41.022 64.691 42.3618 66.0758V66.0758Z" fill="black"/>
</svg>

