<svg width="191" height="140" viewBox="0 0 191 140" fill="none" xmlns="http://www.w3.org/2000/svg">
<path d="M6.61489 85.3015L6.71988 85.6078C0.869052 88.2304 0.181843 91.5039 0.525447 99.2855C0.649527 102.348 4.08557 102.157 4.08557 102.157L11.559 101.832C11.0414 101.435 10.6246 100.921 10.3426 100.332C10.0606 99.7436 9.92145 99.0963 9.9364 98.4432L10.3373 91.7432L16.5699 88.1825L16.7226 88.4793C12.208 91.3507 10.5282 94.0116 10.5186 99.008C10.5186 101.114 12.3321 101.822 16.5508 101.64L31.7171 100.98L31.593 98.1082L32.0703 97.5627L32.4043 105.22L31.9271 105.775C31.9274 105.027 31.6362 104.308 31.1156 103.771C30.595 103.235 29.8862 102.924 29.1401 102.904L0.687705 104.1L0.811785 106.971L0.372734 107.517L0.0195849 99.7928C-0.0854054 96.3375 0.267744 90.7094 0.229566 86.632L6.61489 85.3015Z" fill="white"/>
<path d="M37.7971 36.0752C45.3564 41.2151 47.6471 51.0259 42.9129 58.0132C38.1788 65.0004 28.2429 66.6276 20.655 61.4494C13.0671 56.2712 10.91 46.3646 15.5868 39.4348C20.4355 32.2561 30.1709 30.8874 37.7971 36.0752ZM21.9721 60.1093C28.7965 65.4981 37.8066 64.3687 41.8249 58.4248C46.5017 51.5045 44.0297 42.9476 36.4608 37.4248C29.331 32.1604 20.865 32.9644 16.6845 39.1572C12.0267 46.0105 15.5487 55.0747 21.9721 60.1093Z" fill="white"/>
<path d="M88.7844 12.6631C91.1801 21.4977 86.551 30.4375 78.419 32.6581C70.287 34.8787 61.7064 29.6048 59.3298 20.7319C56.9532 11.8591 61.6682 2.91928 69.6952 0.717827C78.0467 -1.56977 86.3314 3.75201 88.7844 12.6631ZM61.1051 20.5596C62.7945 29.107 70.3634 34.1417 77.2641 32.2465C85.3102 30.045 88.9944 21.9379 86.8087 12.8067C84.852 4.15401 77.9036 -0.765763 70.707 1.20598C62.7468 3.38829 59.5303 12.5578 61.1051 20.5596Z" fill="white"/>
<path d="M107.873 29.7292C108.56 30.0352 109.339 30.0582 110.043 29.7932C110.746 29.5282 111.318 28.9964 111.634 28.3126L121.779 1.65588L119.097 0.622151L118.763 0L126.008 2.77575L126.323 3.43619C123.459 2.32589 122.238 5.56107 122.238 5.56107L121.713 6.9298L130.074 5.36964C131.573 5.03187 133.138 5.13828 134.579 5.67593C137.27 6.70966 138.759 9.30354 137.604 12.2037C136.144 16.0323 131.878 16.4056 128.594 16.8172L117.952 18.3391L123.421 20.4448C127.945 22.1773 134.073 24.2734 131.63 30.8874C129.549 36.4389 124.595 36.6973 120.348 35.0702L108.159 30.3897L107.873 29.7292ZM120.386 34.515C123.45 35.6923 127.888 35.8263 129.931 30.4375C132.25 24.1394 126.943 22.2443 123.192 20.8085L117.322 18.5497L112.397 31.433L120.386 34.515ZM128.585 16.2716C132.164 15.8313 134.903 14.7689 136.058 11.7539C137.127 8.96854 135.839 6.96809 133.72 6.13536C132.494 5.70515 131.173 5.6191 129.902 5.8865L121.474 7.52324L117.513 17.8701L128.585 16.2716Z" fill="white"/>
<path d="M152.064 62.8947L153.792 65.3163L153.687 66.0438L149.01 59.4872L149.115 58.7694C149.285 59.0938 149.529 59.373 149.828 59.5838C150.127 59.7946 150.472 59.9309 150.834 59.9814C151.196 60.0319 151.565 59.9952 151.91 59.8743C152.255 59.7534 152.566 59.5518 152.818 59.2862L171.755 36.8314C164.558 38.918 145.879 44.1919 144.285 44.7949C143.831 45.0703 143.438 45.4378 143.133 45.8739C142.828 46.31 142.617 46.8051 142.514 47.3276C142.411 47.8501 142.417 48.3885 142.533 48.9083C142.649 49.4281 142.872 49.9179 143.188 50.3464C145.803 54.0123 153.439 51.1217 157.724 49.552V49.8487L145.507 54.6823L142.644 50.6623C142.271 50.1642 142.005 49.5948 141.861 48.9894C141.717 48.3839 141.699 47.7553 141.807 47.1424C141.916 46.5295 142.148 45.9455 142.491 45.4264C142.833 44.9074 143.278 44.4644 143.799 44.1249C149.917 42.4307 164.577 38.3245 171.344 36.4677L169.779 34.1992L169.913 33.5005L174.685 40.2006L174.618 40.8993C174.444 40.5917 174.201 40.3287 173.909 40.131C173.617 39.9333 173.282 39.8062 172.933 39.7598C172.583 39.7135 172.228 39.749 171.894 39.8637C171.56 39.9783 171.258 40.169 171.01 40.4207L152.064 62.8947Z" fill="white"/>
<path d="M158.822 106.015V107.498L158.316 107.977V100.099L158.822 99.5729C158.822 102.904 160.874 101.947 160.874 101.947L160.645 102.215C164.139 100.3 170.428 99.7164 172.786 95.4379C173.57 94.0198 173.987 92.4269 173.998 90.8053C173.881 88.578 173.347 86.3928 172.423 84.3636L158.889 84.2966V87.3595L158.383 87.886V79.999L158.889 79.4822C158.844 80.2347 159.097 80.9747 159.591 81.5424C160.086 82.11 160.783 82.4599 161.533 82.5163L190.014 82.6503V79.7789L190.482 79.2524V87.0054L189.976 87.5318C189.976 84.4211 186.549 84.4498 186.549 84.4498H184.993L189.499 91.9156C190.345 93.1888 190.799 94.6832 190.806 96.2132C190.844 96.8996 190.738 97.5863 190.495 98.2292C190.253 98.872 189.878 99.4567 189.396 99.9455C188.914 100.434 188.335 100.816 187.697 101.067C187.059 101.318 186.375 101.432 185.69 101.401C181.748 101.401 179.839 97.8691 177.969 94.3085L173.693 86.6512C174.363 88.3166 174.722 90.0913 174.752 91.8869C174.76 93.3824 174.434 94.8606 173.798 96.2132C170.715 102.569 159.023 101.506 158.822 106.015ZM178.503 94.1075C180.412 97.5724 182.321 99.6877 185.585 99.7069C188.659 99.7069 190.09 97.7925 190.1 95.6102C190.084 94.2913 189.704 93.0025 189.002 91.8869L184.402 84.4211L173.072 84.3636L178.503 94.1075Z" fill="white"/>
<path d="M102.204 58.5586C102.337 58.8553 102.681 58.8266 102.91 58.9989C103.134 59.1325 103.321 59.32 103.454 59.5445C103.736 59.9744 103.892 60.4753 103.903 60.9898C103.874 61.3775 103.755 61.753 103.554 62.0856C103.353 62.4183 103.077 62.6987 102.748 62.9041C102.347 63.1496 101.88 63.2634 101.412 63.2295C101.001 63.1529 100.677 63.4401 100.352 63.6315C100.007 63.8353 99.7239 64.1309 99.5353 64.4856C99.3467 64.8402 99.2594 65.2403 99.2831 65.6415C99.2831 66.4168 99.2831 67.1826 99.2831 67.9483C99.8653 68.2929 100.533 68.1589 101.192 68.3216C102.728 68.6656 104.19 69.285 105.506 70.1497C106.56 70.8933 107.471 71.8205 108.198 72.8872C108.882 73.9194 109.415 75.0443 109.782 76.2277C110.074 77.0997 110.285 77.9968 110.412 78.9077C110.478 79.1951 110.529 79.4859 110.565 79.7787C110.565 80.0946 110.679 80.4009 110.708 80.7359C110.683 81.0544 110.683 81.3745 110.708 81.693C110.87 82.8275 110.918 83.9755 110.851 85.1196C110.882 85.517 110.837 85.9168 110.718 86.2969C110.603 86.632 110.718 87.0244 110.565 87.3977C110.412 87.771 110.679 88.0007 110.403 88.2591C110.402 88.8493 110.278 89.4329 110.04 89.9724C109.906 90.5084 109.649 91.054 109.505 91.59C109.362 92.126 108.952 92.4132 108.99 92.93C108.694 93.2842 108.589 93.7436 108.303 94.1265C108.016 94.5093 107.873 94.9113 107.635 95.3038C107.17 96.1074 106.647 96.8752 106.069 97.6009C105.525 98.2805 104.943 98.941 104.399 99.611C103.957 100.195 103.455 100.731 102.9 101.209C102.013 101.937 101.221 102.76 100.285 103.43C99.4953 104.071 98.6375 104.623 97.7273 105.076C97.5039 105.171 97.2637 105.22 97.021 105.22C96.7784 105.22 96.5382 105.171 96.3147 105.076C95.634 104.746 94.9934 104.338 94.4058 103.861C93.795 103.449 93.27 102.904 92.6401 102.54H92.5828C91.7429 101.736 90.8266 100.989 90.063 100.109C89.3549 99.4002 88.6979 98.6421 88.0968 97.8402C87.5337 96.9979 86.9133 96.2035 86.4265 95.2942C86.1116 94.6816 85.7203 94.0978 85.3862 93.4756C84.8835 92.4745 84.4714 91.4302 84.1549 90.3553C83.8176 89.4312 83.6088 88.465 83.5345 87.4838C83.21 86.9765 83.4296 86.3831 83.2673 85.8279C83.1856 85.2405 83.1856 84.6446 83.2673 84.0572C83.2673 83.4638 83.2673 82.8703 83.2673 82.2769C83.2673 81.9036 83.3723 81.5399 83.4105 81.1762C83.4087 80.8303 83.4536 80.4858 83.5441 80.152C83.6404 79.7703 83.6885 79.378 83.6873 78.9843C83.8359 78.0243 84.0691 77.0794 84.384 76.1607C84.6397 75.2911 85.0053 74.458 85.4721 73.6816C85.7992 73.1079 86.1795 72.5663 86.6079 72.0641C86.988 71.566 87.3959 71.0898 87.8296 70.6379C88.2489 70.2661 88.7102 69.9449 89.204 69.6807C90.3648 69.0164 91.625 68.5445 92.936 68.2833C93.2509 68.2163 93.5563 68.178 93.8904 68.1397C94.1553 68.0981 94.4169 68.0373 94.6731 67.9579V67.4027C94.6731 66.637 94.6731 65.8521 94.6731 65.0864C94.7426 64.3363 94.9128 63.599 95.1789 62.8945C95.6201 61.7768 96.3358 60.789 97.2596 60.023C97.6244 59.7053 98.0367 59.4469 98.4814 59.2573C98.8816 59.0445 99.3085 58.8867 99.7508 58.7883C100.008 58.7883 100.266 58.683 100.533 58.6543C100.581 58.6543 100.619 58.5586 100.658 58.5107L102.204 58.5586Z" fill="white"/>
<path d="M96.5438 139.745C96.4102 139.429 96.0475 139.486 95.828 139.276C95.3447 138.833 94.8347 138.421 94.3008 138.041C93.5634 137.513 92.856 136.944 92.1819 136.337C91.3676 135.688 90.6479 134.928 90.044 134.078C89.7767 133.676 89.414 133.341 89.0895 132.958C89.0199 132.831 88.9655 132.696 88.9272 132.556C91.9252 131.399 94.7068 129.742 97.1547 127.656C99.6793 129.703 102.502 131.349 105.525 132.537C105.163 132.997 104.771 133.427 104.447 133.906C103.908 134.639 103.287 135.307 102.595 135.897C101.848 136.622 101.044 137.284 100.19 137.878C99.8422 138.123 99.5222 138.406 99.2354 138.72C98.8732 139.102 98.4294 139.397 97.9373 139.582C97.8801 139.582 97.8514 139.687 97.8133 139.745H96.5438Z" fill="white"/>
<path d="M113.132 71.2314L113.438 71.375C114.846 71.9768 116.182 72.7379 117.418 73.6435C118.291 74.2332 119.095 74.9203 119.814 75.6918C120.52 76.4767 121.322 77.2041 121.961 78.0464C122.598 78.8731 123.172 79.7465 123.679 80.6594C124.042 81.3486 124.452 82.0186 124.767 82.7365C125.313 83.9391 125.788 85.1727 126.189 86.4311C126.522 87.4655 126.786 88.5207 126.982 89.5897C127.077 90.1735 127.201 90.767 127.316 91.3508C127.319 91.7543 127.37 92.1559 127.468 92.5473C127.669 92.9684 127.468 93.38 127.602 93.7629C127.696 94.4516 127.754 95.145 127.774 95.8399C127.913 96.9764 127.958 98.1226 127.907 99.2665C127.888 99.6589 127.77 100.04 127.565 100.375C127.36 100.709 127.074 100.986 126.733 101.181C126.282 101.397 125.792 101.517 125.292 101.535C124.433 101.535 123.612 101.296 122.763 101.353C122.171 101.066 121.474 101.248 120.911 100.875C120.198 100.813 119.497 100.649 118.83 100.386C118.172 100.244 117.532 100.029 116.922 99.7451C116.215 99.4101 115.48 99.1708 114.774 98.8358C114.068 98.5008 113.581 98.2998 112.989 98.0126C112.861 97.9444 112.74 97.8643 112.626 97.7734C112.856 97.3905 113.104 97.0268 113.295 96.6343C114.039 95.1226 114.656 93.5505 115.137 91.9347C115.376 91.1516 115.558 90.3518 115.681 89.5418C115.805 88.7091 115.881 87.8764 116.005 87.0532C116.128 85.6498 116.169 84.2404 116.129 82.8322C116.1 82.4567 116.053 82.0829 115.986 81.7123C116.025 81.3464 116.025 80.9774 115.986 80.6116C115.913 80.2642 115.862 79.9125 115.833 79.5587C115.796 79.2371 115.742 78.9176 115.671 78.6015C115.566 77.7901 115.367 76.9936 115.079 76.2278C115 75.54 114.806 74.8703 114.507 74.2465C114.185 73.231 113.726 72.2648 113.142 71.375L113.132 71.2314Z" fill="white"/>
<path d="M81.5107 70.9443C81.253 71.4133 81.0335 71.7771 80.8426 72.1695C80.4175 73.1006 80.0572 74.06 79.7641 75.041C79.4824 75.9158 79.2717 76.8121 79.1341 77.721C79.0291 78.3718 78.9337 79.0323 78.8096 79.6832C78.6855 80.334 78.8096 80.8987 78.676 81.473C78.5299 82.7917 78.4788 84.1192 78.5233 85.4452C78.525 85.8431 78.5795 86.2391 78.6855 86.6225C78.6744 87.0193 78.7194 87.4157 78.8191 87.7998C78.9062 88.1316 78.9574 88.4717 78.9719 88.8144C79.2089 89.9746 79.5279 91.1165 79.9263 92.2314C80.3195 93.4188 80.7817 94.5822 81.3103 95.7155C81.5041 96.1003 81.7241 96.4713 81.9689 96.8258C81.8161 96.9215 81.6825 97.0172 81.5489 97.0842C80.5248 97.6634 79.4592 98.1657 78.361 98.587C77.4734 98.9315 76.5762 99.2282 75.679 99.5441C75.154 99.726 74.61 99.8025 74.085 99.9844C73.4405 100.101 72.8031 100.254 72.1761 100.444H72.0998C71.1039 100.582 70.0977 100.63 69.0932 100.587C68.7556 100.565 68.4288 100.459 68.1423 100.278C67.8558 100.098 67.6184 99.8489 67.4515 99.5537C67.1724 99.0892 67.0301 98.5549 67.0411 98.0127C67.0411 97.6298 67.0411 97.2374 67.0411 96.8545C67.0411 95.7634 67.0411 94.6722 67.2225 93.5906C67.2225 93.1503 67.2797 92.6909 67.3656 92.2602C67.4556 91.8228 67.4877 91.3755 67.4611 90.9297C67.8047 90.5947 67.5184 90.1257 67.7474 89.7237C67.9765 89.3217 67.8238 88.891 67.9383 88.489C68.2533 87.3404 68.511 86.1631 68.8928 85.0336C69.3197 83.6919 69.8659 82.3913 70.5249 81.1476C71.1299 80.0403 71.8092 78.9754 72.5579 77.9603C73.4672 76.7602 74.4935 75.654 75.6217 74.6581C76.651 73.7228 77.7848 72.9102 79.0005 72.2365L81.1958 71.0305C81.2966 70.9883 81.4025 70.9593 81.5107 70.9443Z" fill="white"/>
<path d="M90.3015 106.589C90 106.873 89.6812 107.138 89.3471 107.383C88.9866 107.649 88.6453 107.94 88.3258 108.254C87.1458 109.184 85.8948 110.019 84.5843 110.752C83.7635 111.221 82.914 111.652 82.055 112.064C81.3964 112.38 80.7188 112.667 80.0316 112.925C79.3443 113.184 78.409 113.461 77.6168 113.767C77.1676 113.923 76.7084 114.048 76.2424 114.141C75.4351 114.37 74.5999 114.486 73.7608 114.485C73.3922 114.441 73.0378 114.316 72.7227 114.119C72.4076 113.923 72.1396 113.659 71.9377 113.346C71.6727 112.833 71.5045 112.275 71.4414 111.7C71.4052 111.436 71.3543 111.174 71.2887 110.915C71.2887 110.676 71.1742 110.437 71.136 110.207C71.0978 109.977 71.2219 109.642 70.9833 109.412C70.9833 109.412 70.9833 109.412 70.9833 109.336C71.0406 108.503 70.7351 107.689 70.8115 106.847C70.9039 106.503 70.8594 106.135 70.6874 105.823C70.6206 105.737 70.6874 105.574 70.6874 105.45C70.6816 105.394 70.6882 105.337 70.7066 105.284C70.7251 105.231 70.7549 105.183 70.7941 105.143C70.8333 105.102 70.8808 105.071 70.9333 105.052C70.9858 105.032 71.042 105.024 71.0978 105.029C71.693 105.015 72.2864 104.957 72.8731 104.856C73.7806 104.757 74.674 104.554 75.5361 104.253C77.025 104.091 78.3422 103.296 79.7834 103.019C80.5183 102.569 81.3582 102.349 82.1218 101.975C82.8854 101.602 83.7539 101.219 84.5557 100.827C86.2523 102.955 88.1794 104.887 90.3015 106.589Z" fill="white"/>
<path d="M103.998 107.699C105.371 106.646 106.649 105.474 107.816 104.196C108.483 103.524 109.095 102.801 109.648 102.033C109.673 101.987 109.707 101.946 109.748 101.914C109.789 101.882 109.837 101.86 109.887 101.848C109.938 101.836 109.991 101.836 110.042 101.846C110.093 101.856 110.141 101.878 110.183 101.908C110.551 102.148 110.937 102.36 111.338 102.54C111.933 102.864 112.545 103.158 113.17 103.421C114.287 103.851 115.385 104.311 116.521 104.636C117.579 105.027 118.672 105.316 119.785 105.498C120.023 105.775 120.396 105.593 120.739 105.794C121.083 105.995 121.407 105.67 121.694 105.976C121.694 105.976 121.799 105.976 121.846 105.976L123.669 106.139C124.004 106.139 124.108 106.273 124.128 106.608C124.046 107.058 123.988 107.511 123.956 107.967C124.042 108.41 124.042 108.865 123.956 109.307C123.894 109.656 123.849 110.007 123.822 110.36C123.724 111.15 123.577 111.933 123.383 112.705C123.298 113.018 123.247 113.339 123.23 113.662C123.076 114.13 122.878 114.582 122.639 115.012C122.589 115.136 122.493 115.236 122.371 115.289C122.026 115.529 121.641 115.707 121.236 115.816C120.825 115.816 120.357 116.007 119.966 115.682C119.422 115.659 118.884 115.553 118.372 115.366C117.306 115.115 116.257 114.795 115.232 114.409C114.573 114.15 113.953 113.825 113.323 113.624H113.189C112.291 113.258 111.414 112.84 110.565 112.37C109.753 111.863 108.894 111.413 108.083 110.906C107.081 110.264 106.174 109.499 105.172 108.848C104.742 108.507 104.349 108.122 103.998 107.699Z" fill="white"/>
<path d="M88.2305 114.074C89.2708 113.356 90.273 112.676 91.2466 111.949C91.7577 111.543 92.2453 111.108 92.7069 110.647C93.0791 110.293 93.4323 109.92 93.795 109.556C94.1577 109.192 94.2626 109.068 94.7494 109.393C94.9976 109.556 95.2267 109.479 95.4462 109.565C96.4253 109.927 97.4968 109.951 98.4909 109.632C98.8822 109.537 99.2545 109.374 99.684 109.221C101.502 111.054 103.549 112.643 105.773 113.949C105.511 114.588 105.161 115.188 104.733 115.729C104.17 116.62 103.559 117.472 102.939 118.314C102.633 118.735 102.261 119.118 101.917 119.51C101.574 119.903 101.373 120.171 101.097 120.467C100.82 120.764 100.533 121.099 100.266 121.425C99.7495 122.064 99.1708 122.651 98.5386 123.176C98.279 123.401 97.9744 123.568 97.6451 123.666C97.3159 123.763 96.9696 123.789 96.6297 123.741C96.5373 123.719 96.4477 123.687 96.3625 123.645C95.8441 123.418 95.3742 123.093 94.9785 122.688C94.6159 122.356 94.2717 122.005 93.9477 121.635C93.1841 120.678 92.3155 119.721 91.5329 118.764C90.4925 117.491 89.624 116.112 88.6695 114.763C88.5121 114.54 88.3655 114.31 88.2305 114.074Z" fill="white"/>
<path d="M110.365 117.51C111.567 117.969 112.78 118.467 114.02 118.898C115.261 119.328 116.531 119.683 117.838 120.065C117.762 120.247 117.676 120.362 117.685 120.458C117.728 121.048 117.663 121.642 117.495 122.209C117.313 123.253 117.084 124.296 116.826 125.33C116.569 126.363 116.301 127.177 116.092 128.125C116.036 128.479 115.895 128.814 115.683 129.102C115.47 129.391 115.191 129.623 114.87 129.78C114.56 129.942 114.222 130.039 113.874 130.065C113.526 130.092 113.176 130.047 112.846 129.934C111.787 129.589 110.699 129.311 109.63 128.976C108.516 128.637 107.429 128.218 106.375 127.723C105.897 127.543 105.432 127.332 104.982 127.091C104.609 126.842 104.208 126.651 103.808 126.421C106.335 123.72 108.536 120.729 110.365 117.51Z" fill="white"/>
<path d="M90.6258 126.45C90.221 126.723 89.8003 126.973 89.3659 127.196C88.7874 127.502 88.1914 127.774 87.5811 128.01C86.4453 128.44 85.2904 128.814 84.1355 129.177C83.2765 129.455 82.3984 129.675 81.5298 129.924C81.4153 129.924 81.3198 130.058 81.2053 130.077C80.8061 130.135 80.3991 130.106 80.012 129.992C79.6249 129.878 79.2669 129.682 78.9623 129.417C78.6119 129.094 78.3799 128.663 78.3038 128.192C78.1606 127.541 77.9601 126.909 77.8265 126.277C77.6123 125.537 77.4497 124.782 77.3398 124.018C77.0916 123.789 77.3398 123.425 77.1584 123.234C76.9771 123.042 77.1584 122.698 77.0152 122.497C76.7766 122.104 77.0152 121.645 76.8339 121.3C76.6525 120.956 76.7671 120.487 76.7098 120.085C76.7042 120.056 76.7042 120.027 76.7098 119.998C79.1828 119.36 81.6018 118.528 83.9446 117.51C85.7973 120.753 88.0413 123.756 90.6258 126.45Z" fill="white"/>
</svg>
