<svg width="73" height="76" viewBox="0 0 73 76" fill="none" xmlns="http://www.w3.org/2000/svg">
<path d="M60.4883 59.9412V59.5417" stroke="#231F20" stroke-width="0.43" stroke-miterlimit="10"/>
<path d="M60.4881 13.2217V59.5416C60.395 64.3189 47.2051 65.6416 36.7536 65.6519C26.1364 65.6519 13.459 64.1321 13.0449 59.4846C13.0397 59.4207 13.0397 59.3565 13.0449 59.2927V13.2217" fill="white"/>
<path d="M60.4881 13.2217V59.5416C60.395 64.3189 47.2051 65.6416 36.7536 65.6519C26.1364 65.6519 13.459 64.1321 13.0449 59.4846C13.0397 59.4207 13.0397 59.3565 13.0449 59.2927V13.2217" stroke="black" stroke-width="4" stroke-miterlimit="10"/>
<path d="M13.0503 13.2217H13.0818" stroke="#231F20" stroke-width="0.43" stroke-miterlimit="10"/>
<path d="M13.0605 59.4846V59.2927C13.0554 59.3566 13.0554 59.4208 13.0605 59.4846Z" stroke="#231F20" stroke-width="0.43" stroke-miterlimit="10"/>
<path d="M60.4881 13.3774C60.4906 13.4085 60.4906 13.4397 60.4881 13.4708C60.1464 16.8942 47.1066 17.8642 36.7535 17.8693C26.2761 17.8693 13.7902 16.7853 13.0655 13.4708C13.0447 13.3789 13.0343 13.2849 13.0344 13.1907C12.9672 9.69981 25.6032 8.45493 36.7535 8.52236C47.9038 8.58979 60.5657 9.89173 60.4881 13.3774Z" fill="white" stroke="black" stroke-width="4" stroke-miterlimit="10"/>
<path d="M41.5008 17.7707C39.8184 17.8173 38.0687 17.8433 36.2517 17.8329C34.4348 17.8225 32.8197 17.7966 31.2046 17.7447V15.9863H41.5008V17.7707Z" fill="black"/>
<path d="M41.291 16.0737C41.203 16.8362 38.387 17.0489 36.1455 17.0489C33.9041 17.0489 31.1605 16.8362 31 16.0945C31 16.0945 31 16.0581 31 16.0374C31 15.2801 33.7281 15 36.1766 15C38.6251 15 41.3117 15.3164 41.291 16.0737Z" fill="black"/>
<path d="M46.6617 24.7782C46.6563 25.2921 46.4641 25.7863 46.121 26.1683C45.7779 26.5503 45.3076 26.7937 44.7982 26.853C41.9184 27.1888 39.0214 27.3533 36.1222 27.3458C33.3733 27.3369 30.6271 27.1724 27.8967 26.853C27.3891 26.7914 26.9213 26.5469 26.5803 26.1652C26.2393 25.7834 26.0485 25.2905 26.0435 24.7782C26.0434 24.489 26.1029 24.2028 26.2181 23.9376C26.3333 23.6724 26.5017 23.4338 26.713 23.2367C26.9243 23.0396 27.1738 22.8883 27.446 22.792C27.7183 22.6958 28.0073 22.6568 28.2953 22.6775C30.837 22.8539 33.5443 22.9576 36.3966 22.9576C39.2489 22.9576 41.8941 22.8539 44.4099 22.6775C44.6979 22.6568 44.9869 22.6958 45.2592 22.792C45.5314 22.8883 45.7809 23.0396 45.9922 23.2367C46.2034 23.4338 46.3719 23.6724 46.4871 23.9376C46.6023 24.2028 46.6618 24.489 46.6617 24.7782Z" fill="black" stroke="#231F20" stroke-width="0.32" stroke-miterlimit="10"/>
</svg>
